<svg width="800" height="700" xmlns="http://www.w3.org/2000/svg">
  <!-- Background -->
  <rect width="800" height="700" fill="#f5f5f5"/>
  
  <!-- Header -->
  <rect x="0" y="0" width="800" height="80" fill="#2563eb"/>
  <text x="40" y="50" font-family="Arial" font-size="24" fill="white" font-weight="bold">GateO1 - Immigration Platform</text>
  <text x="720" y="50" font-family="Arial" font-size="14" fill="white" text-anchor="end">Attorney Directory</text>
  
  <!-- Search and Filter Bar -->
  <rect x="50" y="100" width="700" height="60" fill="white" stroke="#ddd" stroke-width="1" rx="8"/>
  <g transform="translate(70, 120)">
    <!-- Search Input -->
    <rect x="0" y="0" width="300" height="35" fill="white" stroke="#ccc" rx="4"/>
    <text x="10" y="22" font-family="Arial" font-size="12" fill="#666">🔍 Search attorneys by name, specialization...</text>
    
    <!-- Filter Buttons -->
    <rect x="320" y="0" width="80" height="35" fill="#e5e7eb" stroke="#d1d5db" rx="4"/>
    <text x="360" y="22" font-family="Arial" font-size="12" text-anchor="middle" fill="#374151">Languages</text>
    
    <rect x="410" y="0" width="90" height="35" fill="#e5e7eb" stroke="#d1d5db" rx="4"/>
    <text x="455" y="22" font-family="Arial" font-size="12" text-anchor="middle" fill="#374151">Experience</text>
    
    <rect x="510" y="0" width="80" height="35" fill="#e5e7eb" stroke="#d1d5db" rx="4"/>
    <text x="550" y="22" font-family="Arial" font-size="12" text-anchor="middle" fill="#374151">Location</text>
    
    <rect x="600" y="0" width="70" height="35" fill="#2563eb" rx="4"/>
    <text x="635" y="22" font-family="Arial" font-size="12" text-anchor="middle" fill="white">Search</text>
  </g>
  
  <!-- Filter Panel -->
  <rect x="50" y="180" width="200" height="480" fill="white" stroke="#ddd" stroke-width="1" rx="8"/>
  <rect x="50" y="180" width="200" height="40" fill="#f8fafc" rx="8 8 0 0"/>
  <text x="150" y="205" font-family="Arial" font-size="14" text-anchor="middle" fill="#343a40" font-weight="bold">Filters</text>
  
  <g transform="translate(70, 240)">
    <!-- Languages Filter -->
    <text x="0" y="20" font-family="Arial" font-size="12" fill="#343a40" font-weight="bold">Languages</text>
    <g transform="translate(0, 30)">
      <rect x="0" y="0" width="12" height="12" fill="white" stroke="#ccc" rx="2"/>
      <text x="20" y="10" font-family="Arial" font-size="11" fill="#343a40">English (15)</text>
      
      <rect x="0" y="20" width="12" height="12" fill="#2563eb" stroke="#2563eb" rx="2"/>
      <path d="M3 6 L5 8 L9 4" stroke="white" stroke-width="1.5" fill="none"/>
      <text x="20" y="30" font-family="Arial" font-size="11" fill="#343a40">Spanish (8)</text>
      
      <rect x="0" y="40" width="12" height="12" fill="white" stroke="#ccc" rx="2"/>
      <text x="20" y="50" font-family="Arial" font-size="11" fill="#343a40">Chinese (5)</text>
      
      <rect x="0" y="60" width="12" height="12" fill="white" stroke="#ccc" rx="2"/>
      <text x="20" y="70" font-family="Arial" font-size="11" fill="#343a40">Russian (3)</text>
    </g>
    
    <!-- Experience Filter -->
    <text x="0" y="120" font-family="Arial" font-size="12" fill="#343a40" font-weight="bold">Experience</text>
    <g transform="translate(0, 130)">
      <rect x="0" y="0" width="12" height="12" fill="white" stroke="#ccc" rx="2"/>
      <text x="20" y="10" font-family="Arial" font-size="11" fill="#343a40">0-2 years (2)</text>
      
      <rect x="0" y="20" width="12" height="12" fill="white" stroke="#ccc" rx="2"/>
      <text x="20" y="30" font-family="Arial" font-size="11" fill="#343a40">3-5 years (7)</text>
      
      <rect x="0" y="40" width="12" height="12" fill="#2563eb" stroke="#2563eb" rx="2"/>
      <path d="M3 6 L5 8 L9 4" stroke="white" stroke-width="1.5" fill="none"/>
      <text x="20" y="50" font-family="Arial" font-size="11" fill="#343a40">6-10 years (9)</text>
      
      <rect x="0" y="60" width="12" height="12" fill="white" stroke="#ccc" rx="2"/>
      <text x="20" y="70" font-family="Arial" font-size="11" fill="#343a40">10+ years (6)</text>
    </g>
    
    <!-- Specialization Filter -->
    <text x="0" y="220" font-family="Arial" font-size="12" fill="#343a40" font-weight="bold">Specialization</text>
    <g transform="translate(0, 230)">
      <rect x="0" y="0" width="12" height="12" fill="#2563eb" stroke="#2563eb" rx="2"/>
      <path d="M3 6 L5 8 L9 4" stroke="white" stroke-width="1.5" fill="none"/>
      <text x="20" y="10" font-family="Arial" font-size="11" fill="#343a40">O-1A (20)</text>
      
      <rect x="0" y="20" width="12" height="12" fill="white" stroke="#ccc" rx="2"/>
      <text x="20" y="30" font-family="Arial" font-size="11" fill="#343a40">O-1B (8)</text>
      
      <rect x="0" y="40" width="12" height="12" fill="white" stroke="#ccc" rx="2"/>
      <text x="20" y="50" font-family="Arial" font-size="11" fill="#343a40">EB-1A (12)</text>
    </g>
    
    <!-- Availability Filter -->
    <text x="0" y="320" font-family="Arial" font-size="12" fill="#343a40" font-weight="bold">Availability</text>
    <g transform="translate(0, 330)">
      <rect x="0" y="0" width="12" height="12" fill="white" stroke="#ccc" rx="2"/>
      <text x="20" y="10" font-family="Arial" font-size="11" fill="#343a40">This week</text>
      
      <rect x="0" y="20" width="12" height="12" fill="#2563eb" stroke="#2563eb" rx="2"/>
      <path d="M3 6 L5 8 L9 4" stroke="white" stroke-width="1.5" fill="none"/>
      <text x="20" y="30" font-family="Arial" font-size="11" fill="#343a40">Next 2 weeks</text>
      
      <rect x="0" y="40" width="12" height="12" fill="white" stroke="#ccc" rx="2"/>
      <text x="20" y="50" font-family="Arial" font-size="11" fill="#343a40">Next month</text>
    </g>
    
    <!-- Clear Filters -->
    <rect x="0" y="400" width="160" height="30" fill="#e5e7eb" rx="4"/>
    <text x="80" y="420" font-family="Arial" font-size="12" text-anchor="middle" fill="#6c757d">Clear All Filters</text>
  </g>
  
  <!-- Results Section -->
  <rect x="270" y="180" width="480" height="480" fill="white" stroke="#ddd" stroke-width="1" rx="8"/>
  <rect x="270" y="180" width="480" height="40" fill="#f8fafc" rx="8 8 0 0"/>
  <text x="290" y="205" font-family="Arial" font-size="14" fill="#343a40" font-weight="bold">5 Attorneys Found</text>
  <text x="720" y="205" font-family="Arial" font-size="12" fill="#6c757d" text-anchor="end">Sort by: Rating ▼</text>
  
  <g transform="translate(290, 240)">
    <!-- Attorney 1 -->
    <rect x="0" y="0" width="440" height="80" fill="white" stroke="#e2e8f0" stroke-width="1" rx="6"/>
    <circle cx="30" cy="40" r="20" fill="#2563eb"/>
    <text x="30" y="47" font-family="Arial" font-size="12" text-anchor="middle" fill="white" font-weight="bold">LS</text>
    
    <text x="60" y="25" font-family="Arial" font-size="14" fill="#343a40" font-weight="bold">Lisa Smith, Esq.</text>
    <text x="60" y="40" font-family="Arial" font-size="11" fill="#6c757d">8+ years • O-1A Specialist • English, Spanish</text>
    <text x="60" y="55" font-family="Arial" font-size="11" fill="#6c757d">95% success rate • Available this week</text>
    <text x="60" y="70" font-family="Arial" font-size="11" fill="#22c55e">$150/consultation</text>
    
    <!-- Rating -->
    <text x="350" y="25" font-family="Arial" font-size="12" fill="#f59e0b">★★★★★ 4.9</text>
    <rect x="350" y="35" width="80" height="25" fill="#2563eb" rx="4"/>
    <text x="390" y="52" font-family="Arial" font-size="11" text-anchor="middle" fill="white">View Profile</text>
    
    <!-- Attorney 2 -->
    <rect x="0" y="90" width="440" height="80" fill="white" stroke="#e2e8f0" stroke-width="1" rx="6"/>
    <circle cx="30" cy="130" r="20" fill="#10b981"/>
    <text x="30" y="137" font-family="Arial" font-size="12" text-anchor="middle" fill="white" font-weight="bold">JD</text>
    
    <text x="60" y="115" font-family="Arial" font-size="14" fill="#343a40" font-weight="bold">Jane Doe, Esq.</text>
    <text x="60" y="130" font-family="Arial" font-size="11" fill="#6c757d">12+ years • O-1A/EB-1A • English, Chinese</text>
    <text x="60" y="145" font-family="Arial" font-size="11" fill="#6c757d">90% success rate • Available next week</text>
    <text x="60" y="160" font-family="Arial" font-size="11" fill="#22c55e">$200/consultation</text>
    
    <!-- Rating -->
    <text x="350" y="115" font-family="Arial" font-size="12" fill="#f59e0b">★★★★☆ 4.7</text>
    <rect x="350" y="125" width="80" height="25" fill="#2563eb" rx="4"/>
    <text x="390" y="142" font-family="Arial" font-size="11" text-anchor="middle" fill="white">View Profile</text>
    
    <!-- Attorney 3 -->
    <rect x="0" y="180" width="440" height="80" fill="white" stroke="#e2e8f0" stroke-width="1" rx="6"/>
    <circle cx="30" cy="220" r="20" fill="#f59e0b"/>
    <text x="30" y="227" font-family="Arial" font-size="12" text-anchor="middle" fill="white" font-weight="bold">MJ</text>
    
    <text x="60" y="205" font-family="Arial" font-size="14" fill="#343a40" font-weight="bold">Michael Johnson, Esq.</text>
    <text x="60" y="220" font-family="Arial" font-size="11" fill="#6c757d">6 years • O-1A Focus • English</text>
    <text x="60" y="235" font-family="Arial" font-size="11" fill="#6c757d">88% success rate • Available in 2 weeks</text>
    <text x="60" y="250" font-family="Arial" font-size="11" fill="#22c55e">$175/consultation</text>
    
    <!-- Rating -->
    <text x="350" y="205" font-family="Arial" font-size="12" fill="#f59e0b">★★★★☆ 4.5</text>
    <rect x="350" y="215" width="80" height="25" fill="#2563eb" rx="4"/>
    <text x="390" y="232" font-family="Arial" font-size="11" text-anchor="middle" fill="white">View Profile</text>
    
    <!-- Load More -->
    <rect x="170" y="280" width="100" height="35" fill="#e5e7eb" stroke="#d1d5db" rx="4"/>
    <text x="220" y="302" font-family="Arial" font-size="12" text-anchor="middle" fill="#6c757d">Load More</text>
    
    <!-- Pagination -->
    <text x="220" y="340" font-family="Arial" font-size="12" text-anchor="middle" fill="#6c757d">Page 1 of 2</text>
    <text x="170" y="360" font-family="Arial" font-size="12" fill="#2563eb">← Previous</text>
    <text x="270" y="360" font-family="Arial" font-size="12" fill="#2563eb">Next →</text>
  </g>
</svg>