<svg width="1000" height="700" xmlns="http://www.w3.org/2000/svg">
  <!-- Background -->
  <rect width="1000" height="700" fill="#f5f5f5"/>
  
  <!-- Header -->
  <rect x="0" y="0" width="1000" height="70" fill="#1f2937"/>
  <text x="30" y="45" font-family="Arial" font-size="20" fill="white" font-weight="bold">GateO1 Admin Panel</text>
  <text x="920" y="30" font-family="Arial" font-size="12" fill="white" text-anchor="end">Admin User</text>
  <text x="920" y="50" font-family="Arial" font-size="11" fill="#9ca3af" text-anchor="end">Settings | Logout</text>
  
  <!-- Sidebar -->
  <rect x="0" y="70" width="200" height="630" fill="#374151"/>
  <g transform="translate(20, 90)">
    <!-- Navigation Menu -->
    <rect x="0" y="0" width="160" height="35" fill="transparent" rx="4"/>
    <text x="10" y="25" font-family="Arial" font-size="12" fill="#d1d5db">📊 Dashboard</text>
    
    <rect x="0" y="45" width="160" height="35" fill="transparent" rx="4"/>
    <text x="10" y="70" font-family="Arial" font-size="12" fill="#d1d5db">👤 Users</text>
    
    <rect x="0" y="90" width="160" height="35" fill="transparent" rx="4"/>
    <text x="10" y="115" font-family="Arial" font-size="12" fill="#d1d5db">👩‍⚖️ Attorneys</text>
    
    <rect x="0" y="135" width="160" height="35" fill="#2563eb" rx="4"/>
    <text x="10" y="160" font-family="Arial" font-size="12" fill="white" font-weight="bold">📋 Applications</text>
    
    <rect x="0" y="180" width="140" height="25" fill="transparent" rx="2"/>
    <text x="20" y="197" font-family="Arial" font-size="11" fill="#d1d5db">Processing Queue</text>
    
    <rect x="0" y="205" width="140" height="25" fill="transparent" rx="2"/>
    <text x="20" y="222" font-family="Arial" font-size="11" fill="#d1d5db">AI Monitoring</text>
    
    <rect x="0" y="230" width="140" height="25" fill="transparent" rx="2"/>
    <text x="20" y="247" font-family="Arial" font-size="11" fill="#d1d5db">Document Review</text>
    
    <!-- Queue Stats -->
    <text x="0" y="290" font-family="Arial" font-size="11" fill="#9ca3af" font-weight="bold">QUEUE STATUS</text>
    <text x="0" y="310" font-family="Arial" font-size="10" fill="#d1d5db">Pending: 23</text>
    <text x="0" y="325" font-family="Arial" font-size="10" fill="#d1d5db">Processing: 12</text>
    <text x="0" y="340" font-family="Arial" font-size="10" fill="#d1d5db">Completed Today: 45</text>
  </g>
  
  <!-- Main Content -->
  <g transform="translate(220, 90)">
    <!-- Page Header -->
    <text x="0" y="25" font-family="Arial" font-size="24" fill="#1f2937" font-weight="bold">Application Processing</text>
    <text x="580" y="25" font-family="Arial" font-size="12" fill="#6b7280" text-anchor="end">Real-time queue monitoring</text>
    
    <!-- Processing Stats -->
    <g transform="translate(0, 50)">
      <!-- Queue Length -->
      <rect x="0" y="0" width="150" height="80" fill="white" stroke="#e5e7eb" stroke-width="1" rx="8"/>
      <text x="15" y="25" font-family="Arial" font-size="12" fill="#6b7280">Queue Length</text>
      <text x="15" y="45" font-family="Arial" font-size="24" fill="#1f2937" font-weight="bold">23</text>
      <text x="15" y="65" font-family="Arial" font-size="11" fill="#f59e0b">+5 this hour</text>
      
      <!-- Processing -->
      <rect x="170" y="0" width="150" height="80" fill="white" stroke="#e5e7eb" stroke-width="1" rx="8"/>
      <text x="185" y="25" font-family="Arial" font-size="12" fill="#6b7280">Processing</text>
      <text x="185" y="45" font-family="Arial" font-size="24" fill="#1f2937" font-weight="bold">12</text>
      <text x="185" y="65" font-family="Arial" font-size="11" fill="#2563eb">AI analyzing</text>
      
      <!-- Completed Today -->
      <rect x="340" y="0" width="150" height="80" fill="white" stroke="#e5e7eb" stroke-width="1" rx="8"/>
      <text x="355" y="25" font-family="Arial" font-size="12" fill="#6b7280">Completed Today</text>
      <text x="355" y="45" font-family="Arial" font-size="24" fill="#1f2937" font-weight="bold">45</text>
      <text x="355" y="65" font-family="Arial" font-size="11" fill="#22c55e">94% success rate</text>
      
      <!-- Avg Processing Time -->
      <rect x="510" y="0" width="150" height="80" fill="white" stroke="#e5e7eb" stroke-width="1" rx="8"/>
      <text x="525" y="25" font-family="Arial" font-size="12" fill="#6b7280">Avg Processing</text>
      <text x="525" y="45" font-family="Arial" font-size="24" fill="#1f2937" font-weight="bold">3.2min</text>
      <text x="525" y="65" font-family="Arial" font-size="11" fill="#22c55e">Within SLA</text>
      
      <!-- Alert Count -->
      <rect x="680" y="0" width="100" height="80" fill="white" stroke="#e5e7eb" stroke-width="1" rx="8"/>
      <text x="695" y="25" font-family="Arial" font-size="12" fill="#6b7280">Alerts</text>
      <text x="695" y="45" font-family="Arial" font-size="24" fill="#ef4444" font-weight="bold">2</text>
      <text x="695" y="65" font-family="Arial" font-size="11" fill="#ef4444">Need attention</text>
    </g>
    
    <!-- Processing Queue Table -->
    <rect x="0" y="150" width="780" height="300" fill="white" stroke="#e5e7eb" stroke-width="1" rx="8"/>
    <rect x="0" y="150" width="780" height="40" fill="#f9fafb" rx="8 8 0 0"/>
    <text x="15" y="175" font-family="Arial" font-size="14" fill="#1f2937" font-weight="bold">Processing Queue</text>
    <text x="650" y="175" font-family="Arial" font-size="12" fill="#2563eb">View All Applications →</text>
    
    <!-- Table Headers -->
    <g transform="translate(15, 205)">
      <text x="0" y="12" font-family="Arial" font-size="11" fill="#6b7280" font-weight="bold">Application ID</text>
      <text x="120" y="12" font-family="Arial" font-size="11" fill="#6b7280" font-weight="bold">User</text>
      <text x="250" y="12" font-family="Arial" font-size="11" fill="#6b7280" font-weight="bold">Status</text>
      <text x="350" y="12" font-family="Arial" font-size="11" fill="#6b7280" font-weight="bold">Progress</text>
      <text x="450" y="12" font-family="Arial" font-size="11" fill="#6b7280" font-weight="bold">AI Score</text>
      <text x="520" y="12" font-family="Arial" font-size="11" fill="#6b7280" font-weight="bold">Attorney</text>
      <text x="650" y="12" font-family="Arial" font-size="11" fill="#6b7280" font-weight="bold">Queue Time</text>
      <text x="730" y="12" font-family="Arial" font-size="11" fill="#6b7280" font-weight="bold">Actions</text>
    </g>
    
    <!-- Table Rows -->
    <g transform="translate(15, 230)">
      <!-- Row 1 - Processing -->
      <rect x="0" y="0" width="750" height="35" fill="#eff6ff" stroke="#2563eb" stroke-width="1" rx="4"/>
      <text x="10" y="22" font-family="Arial" font-size="11" fill="#1f2937" font-weight="bold">O1A-2024-001234</text>
      <text x="120" y="22" font-family="Arial" font-size="11" fill="#1f2937">John Doe</text>
      
      <rect x="240" y="5" width="70" height="20" fill="#dbeafe" stroke="#2563eb" rx="10"/>
      <text x="275" y="18" font-family="Arial" font-size="9" text-anchor="middle" fill="#1d4ed8">Processing</text>
      
      <!-- Progress Bar -->
      <rect x="350" y="10" width="80" height="8" fill="#e5e7eb" rx="4"/>
      <rect x="350" y="10" width="56" height="8" fill="#2563eb" rx="4"/>
      <text x="440" y="18" font-family="Arial" font-size="10" fill="#6b7280">70%</text>
      
      <text x="470" y="22" font-family="Arial" font-size="11" fill="#f59e0b" font-weight="bold">67%</text>
      <text x="520" y="22" font-family="Arial" font-size="11" fill="#6b7280">Lisa Smith</text>
      <text x="650" y="22" font-family="Arial" font-size="11" fill="#6b7280">2.5 min</text>
      
      <rect x="720" y="8" width="20" height="20" fill="#2563eb" rx="2"/>
      <text x="730" y="21" font-family="Arial" font-size="12" text-anchor="middle" fill="white">👁</text>
      
      <!-- Row 2 - Queued -->
      <g transform="translate(0, 45)">
        <text x="10" y="22" font-family="Arial" font-size="11" fill="#1f2937" font-weight="bold">O1A-2024-001235</text>
        <text x="120" y="22" font-family="Arial" font-size="11" fill="#1f2937">Jane Smith</text>
        
        <rect x="240" y="5" width="70" height="20" fill="#fef3c7" stroke="#f59e0b" rx="10"/>
        <text x="275" y="18" font-family="Arial" font-size="9" text-anchor="middle" fill="#92400e">Queued</text>
        
        <rect x="350" y="10" width="80" height="8" fill="#e5e7eb" rx="4"/>
        <rect x="350" y="10" width="32" height="8" fill="#f59e0b" rx="4"/>
        <text x="440" y="18" font-family="Arial" font-size="10" fill="#6b7280">40%</text>
        
        <text x="470" y="22" font-family="Arial" font-size="11" fill="#6b7280">Pending</text>
        <text x="520" y="22" font-family="Arial" font-size="11" fill="#6b7280">Unassigned</text>
        <text x="650" y="22" font-family="Arial" font-size="11" fill="#6b7280">8.3 min</text>
        
        <rect x="720" y="8" width="20" height="20" fill="#2563eb" rx="2"/>
        <text x="730" y="21" font-family="Arial" font-size="12" text-anchor="middle" fill="white">👁</text>
      </g>
      
      <!-- Row 3 - Error -->
      <g transform="translate(0, 90)">
        <rect x="0" y="0" width="750" height="35" fill="#fef2f2" stroke="#ef4444" stroke-width="1" rx="4"/>
        <text x="10" y="22" font-family="Arial" font-size="11" fill="#1f2937" font-weight="bold">O1A-2024-001236</text>
        <text x="120" y="22" font-family="Arial" font-size="11" fill="#1f2937">Mike Brown</text>
        
        <rect x="240" y="5" width="70" height="20" fill="#fee2e2" stroke="#ef4444" rx="10"/>
        <text x="275" y="18" font-family="Arial" font-size="9" text-anchor="middle" fill="#b91c1c">Error</text>
        
        <rect x="350" y="10" width="80" height="8" fill="#e5e7eb" rx="4"/>
        <rect x="350" y="10" width="16" height="8" fill="#ef4444" rx="4"/>
        <text x="440" y="18" font-family="Arial" font-size="10" fill="#6b7280">20%</text>
        
        <text x="470" y="22" font-family="Arial" font-size="11" fill="#ef4444">Failed</text>
        <text x="520" y="22" font-family="Arial" font-size="11" fill="#6b7280">-</text>
        <text x="650" y="22" font-family="Arial" font-size="11" fill="#ef4444">12.1 min</text>
        
        <rect x="720" y="8" width="20" height="20" fill="#ef4444" rx="2"/>
        <text x="730" y="21" font-family="Arial" font-size="12" text-anchor="middle" fill="white">⚠</text>
      </g>
      
      <!-- Row 4 - Complete -->
      <g transform="translate(0, 135)">
        <text x="10" y="22" font-family="Arial" font-size="11" fill="#1f2937" font-weight="bold">O1A-2024-001237</text>
        <text x="120" y="22" font-family="Arial" font-size="11" fill="#1f2937">Anna Lee</text>
        
        <rect x="240" y="5" width="70" height="20" fill="#dcfce7" stroke="#22c55e" rx="10"/>
        <text x="275" y="18" font-family="Arial" font-size="9" text-anchor="middle" fill="#15803d">Complete</text>
        
        <rect x="350" y="10" width="80" height="8" fill="#e5e7eb" rx="4"/>
        <rect x="350" y="10" width="80" height="8" fill="#22c55e" rx="4"/>
        <text x="440" y="18" font-family="Arial" font-size="10" fill="#6b7280">100%</text>
        
        <text x="470" y="22" font-family="Arial" font-size="11" fill="#22c55e" font-weight="bold">89%</text>
        <text x="520" y="22" font-family="Arial" font-size="11" fill="#6b7280">Jane Doe</text>
        <text x="650" y="22" font-family="Arial" font-size="11" fill="#6b7280">1.8 min</text>
        
        <rect x="720" y="8" width="20" height="20" fill="#22c55e" rx="2"/>
        <text x="730" y="21" font-family="Arial" font-size="12" text-anchor="middle" fill="white">✓</text>
      </g>
      
      <!-- Row 5 - Priority -->
      <g transform="translate(0, 180)">
        <rect x="0" y="0" width="750" height="35" fill="#fefce8" stroke="#eab308" stroke-width="1" rx="4"/>
        <text x="10" y="22" font-family="Arial" font-size="11" fill="#1f2937" font-weight="bold">O1A-2024-001238</text>
        <text x="120" y="22" font-family="Arial" font-size="11" fill="#1f2937">Robert Garcia</text>
        
        <rect x="240" y="5" width="70" height="20" fill="#fef3c7" stroke="#f59e0b" rx="10"/>
        <text x="275" y="18" font-family="Arial" font-size="9" text-anchor="middle" fill="#92400e">Priority</text>
        
        <rect x="350" y="10" width="80" height="8" fill="#e5e7eb" rx="4"/>
        <rect x="350" y="10" width="48" height="8" fill="#eab308" rx="4"/>
        <text x="440" y="18" font-family="Arial" font-size="10" fill="#6b7280">60%</text>
        
        <text x="470" y="22" font-family="Arial" font-size="11" fill="#f59e0b" font-weight="bold">73%</text>
        <text x="520" y="22" font-family="Arial" font-size="11" fill="#6b7280">Michael Johnson</text>
        <text x="650" y="22" font-family="Arial" font-size="11" fill="#eab308">0.5 min</text>
        
        <rect x="720" y="8" width="20" height="20" fill="#eab308" rx="2"/>
        <text x="730" y="21" font-family="Arial" font-size="12" text-anchor="middle" fill="white">⭐</text>
      </g>
    </g>
    
    <!-- AI System Status -->
    <g transform="translate(0, 470)">
      <rect x="0" y="0" width="380" height="120" fill="white" stroke="#e5e7eb" stroke-width="1" rx="8"/>
      <rect x="0" y="0" width="380" height="35" fill="#f9fafb" rx="8 8 0 0"/>
      <text x="15" y="25" font-family="Arial" font-size="14" fill="#1f2937" font-weight="bold">AI System Status</text>
      
      <g transform="translate(15, 50)">
        <!-- Document Processing -->
        <text x="0" y="15" font-family="Arial" font-size="11" fill="#6b7280">Document Processing Queue:</text>
        <rect x="0" y="20" width="200" height="6" fill="#e5e7eb" rx="3"/>
        <rect x="0" y="20" width="120" height="6" fill="#f59e0b" rx="3"/>
        <text x="210" y="26" font-family="Arial" font-size="10" fill="#f59e0b">23 docs pending</text>
        
        <!-- AI Model Health -->
        <text x="0" y="45" font-family="Arial" font-size="11" fill="#6b7280">AI Model Health:</text>
        <rect x="0" y="50" width="200" height="6" fill="#e5e7eb" rx="3"/>
        <rect x="0" y="50" width="180" height="6" fill="#22c55e" rx="3"/>
        <text x="210" y="56" font-family="Arial" font-size="10" fill="#22c55e">98% accuracy</text>
        
        <!-- Processing Speed -->
        <text x="0" y="75" font-family="Arial" font-size="11" fill="#6b7280">Processing Speed:</text>
        <text x="210" y="75" font-family="Arial" font-size="10" fill="#2563eb">3.2 min avg</text>
      </g>
      
      <!-- System Controls -->
      <rect x="400" y="0" width="380" height="120" fill="white" stroke="#e5e7eb" stroke-width="1" rx="8"/>
      <rect x="400" y="0" width="380" height="35" fill="#f9fafb" rx="8 8 0 0"/>
      <text x="415" y="25" font-family="Arial" font-size="14" fill="#1f2937" font-weight="bold">Queue Controls</text>
      
      <g transform="translate(415, 50)">
        <!-- Control Buttons -->
        <rect x="0" y="0" width="100" height="25" fill="#2563eb" rx="4"/>
        <text x="50" y="18" font-family="Arial" font-size="11" text-anchor="middle" fill="white">Pause Queue</text>
        
        <rect x="110" y="0" width="100" height="25" fill="#22c55e" rx="4"/>
        <text x="160" y="18" font-family="Arial" font-size="11" text-anchor="middle" fill="white">Priority Mode</text>
        
        <rect x="220" y="0" width="120" height="25" fill="#f59e0b" rx="4"/>
        <text x="280" y="18" font-family="Arial" font-size="11" text-anchor="middle" fill="white">Restart Processing</text>
        
        <!-- Status Indicators -->
        <text x="0" y="45" font-family="Arial" font-size="11" fill="#6b7280">Queue Status:</text>
        <circle cx="90" cy="41" r="4" fill="#22c55e"/>
        <text x="100" y="45" font-family="Arial" font-size="11" fill="#22c55e">Running</text>
        
        <text x="150" y="45" font-family="Arial" font-size="11" fill="#6b7280">Workers:</text>
        <text x="200" y="45" font-family="Arial" font-size="11" fill="#1f2937">4/4 active</text>
      </g>
    </g>
  </g>
</svg>