<svg width="800" height="700" xmlns="http://www.w3.org/2000/svg">
  <!-- Background -->
  <rect width="800" height="700" fill="#f5f5f5"/>
  
  <!-- Header -->
  <rect x="0" y="0" width="800" height="80" fill="#2563eb"/>
  <text x="40" y="50" font-family="Arial" font-size="24" fill="white" font-weight="bold">GateO1 - Immigration Platform</text>
  <text x="720" y="30" font-family="Arial" font-size="14" fill="white" text-anchor="end">John Doe</text>
  <text x="720" y="50" font-family="Arial" font-size="12" fill="#9ca3af" text-anchor="end">← Back to Dashboard</text>
  
  <!-- Navigation Tabs -->
  <g transform="translate(50, 100)">
    <rect x="0" y="0" width="120" height="40" fill="#2563eb" rx="4"/>
    <text x="60" y="25" font-family="Arial" font-size="14" text-anchor="middle" fill="white" font-weight="bold">Profile</text>
    
    <rect x="130" y="0" width="120" height="40" fill="white" stroke="#d1d5db" rx="4"/>
    <text x="190" y="25" font-family="Arial" font-size="14" text-anchor="middle" fill="#6c757d">Security</text>
    
    <rect x="260" y="0" width="120" height="40" fill="white" stroke="#d1d5db" rx="4"/>
    <text x="320" y="25" font-family="Arial" font-size="14" text-anchor="middle" fill="#6c757d">Notifications</text>
    
    <rect x="390" y="0" width="120" height="40" fill="white" stroke="#d1d5db" rx="4"/>
    <text x="450" y="25" font-family="Arial" font-size="14" text-anchor="middle" fill="#6c757d">Privacy</text>
  </g>
  
  <!-- Main Content -->
  <rect x="50" y="160" width="700" height="480" fill="white" stroke="#ddd" stroke-width="1" rx="8"/>
  
  <!-- Profile Section Header -->
  <rect x="50" y="160" width="700" height="50" fill="#f8fafc" rx="8 8 0 0"/>
  <text x="70" y="190" font-family="Arial" font-size="18" fill="#343a40" font-weight="bold">Profile Information</text>
  
  <!-- Profile Form -->
  <g transform="translate(70, 230)">
    <!-- Profile Picture Section -->
    <circle cx="60" cy="60" r="40" fill="#e5e7eb" stroke="#d1d5db" stroke-width="2"/>
    <text x="60" y="67" font-family="Arial" font-size="24" text-anchor="middle" fill="#6c757d" font-weight="bold">JD</text>
    
    <rect x="120" y="40" width="100" height="30" fill="#2563eb" rx="4"/>
    <text x="170" y="60" font-family="Arial" font-size="12" text-anchor="middle" fill="white">Change Photo</text>
    
    <rect x="230" y="40" width="80" height="30" fill="#e5e7eb" rx="4"/>
    <text x="270" y="60" font-family="Arial" font-size="12" text-anchor="middle" fill="#6c757d">Remove</text>
    
    <!-- Form Fields -->
    <g transform="translate(0, 120)">
      <!-- First Name -->
      <text x="0" y="20" font-family="Arial" font-size="14" font-weight="bold" fill="#343a40">First Name</text>
      <rect x="0" y="25" width="300" height="35" fill="white" stroke="#ccc" rx="4"/>
      <text x="10" y="45" font-family="Arial" font-size="12" fill="#343a40">John</text>
      
      <!-- Last Name -->
      <text x="320" y="20" font-family="Arial" font-size="14" font-weight="bold" fill="#343a40">Last Name</text>
      <rect x="320" y="25" width="300" height="35" fill="white" stroke="#ccc" rx="4"/>
      <text x="330" y="45" font-family="Arial" font-size="12" fill="#343a40">Doe</text>
      
      <!-- Email -->
      <text x="0" y="85" font-family="Arial" font-size="14" font-weight="bold" fill="#343a40">Email Address</text>
      <rect x="0" y="90" width="620" height="35" fill="white" stroke="#ccc" rx="4"/>
      <text x="10" y="110" font-family="Arial" font-size="12" fill="#343a40">john.doe@example.com</text>
      <text x="500" y="110" font-family="Arial" font-size="11" fill="#22c55e">✓ Verified</text>
      
      <!-- Phone -->
      <text x="0" y="150" font-family="Arial" font-size="14" font-weight="bold" fill="#343a40">Phone Number</text>
      <rect x="0" y="155" width="300" height="35" fill="white" stroke="#ccc" rx="4"/>
      <text x="10" y="175" font-family="Arial" font-size="12" fill="#6c757d">+1 (555) 123-4567</text>
      
      <!-- Language Preference -->
      <text x="320" y="150" font-family="Arial" font-size="14" font-weight="bold" fill="#343a40">Language Preference</text>
      <rect x="320" y="155" width="300" height="35" fill="white" stroke="#ccc" rx="4"/>
      <text x="330" y="175" font-family="Arial" font-size="12" fill="#343a40">English</text>
      <text x="590" y="175" font-family="Arial" font-size="12" fill="#6c757d">▼</text>
      
      <!-- Country -->
      <text x="0" y="215" font-family="Arial" font-size="14" font-weight="bold" fill="#343a40">Country</text>
      <rect x="0" y="220" width="300" height="35" fill="white" stroke="#ccc" rx="4"/>
      <text x="10" y="240" font-family="Arial" font-size="12" fill="#343a40">United States</text>
      <text x="270" y="240" font-family="Arial" font-size="12" fill="#6c757d">▼</text>
      
      <!-- Current Status -->
      <text x="320" y="215" font-family="Arial" font-size="14" font-weight="bold" fill="#343a40">Current Immigration Status</text>
      <rect x="320" y="220" width="300" height="35" fill="white" stroke="#ccc" rx="4"/>
      <text x="330" y="240" font-family="Arial" font-size="12" fill="#343a40">H-1B</text>
      <text x="590" y="240" font-family="Arial" font-size="12" fill="#6c757d">▼</text>
      
      <!-- Bio/Notes -->
      <text x="0" y="280" font-family="Arial" font-size="14" font-weight="bold" fill="#343a40">Professional Summary (Optional)</text>
      <rect x="0" y="285" width="620" height="80" fill="white" stroke="#ccc" rx="4"/>
      <text x="10" y="305" font-family="Arial" font-size="12" fill="#6c757d">Brief description of your professional background...</text>
      
      <!-- Action Buttons -->
      <rect x="0" y="385" width="100" height="35" fill="#22c55e" rx="4"/>
      <text x="50" y="407" font-family="Arial" font-size="12" text-anchor="middle" fill="white" font-weight="bold">Save Changes</text>
      
      <rect x="120" y="385" width="80" height="35" fill="#e5e7eb" rx="4"/>
      <text x="160" y="407" font-family="Arial" font-size="12" text-anchor="middle" fill="#6c757d">Cancel</text>
      
      <!-- Danger Zone -->
      <rect x="500" y="385" width="120" height="35" fill="#ef4444" rx="4"/>
      <text x="560" y="407" font-family="Arial" font-size="12" text-anchor="middle" fill="white">Delete Account</text>
    </g>
  </g>
</svg>