<svg width="900" height="700" xmlns="http://www.w3.org/2000/svg">
  <!-- Background Overlay -->
  <rect width="900" height="700" fill="black" fill-opacity="0.3"/>
  
  <!-- Modal Container -->
  <rect x="100" y="50" width="700" height="600" fill="white" stroke="#ddd" stroke-width="2" rx="8"/>
  
  <!-- Modal Header -->
  <rect x="100" y="50" width="700" height="60" fill="#2563eb" rx="8 8 0 0"/>
  <text x="120" y="85" fill="white" font-size="18" font-weight="bold">⚖️ Document Upload Agreement (Step 1/2)</text>
  
  <!-- Modal Content -->
  <g transform="translate(120, 130)">
    <!-- Quick Summary -->
    <text x="0" y="20" font-size="16" font-weight="bold">Quick Summary:</text>
    
    <g transform="translate(0, 30)">
      <text x="0" y="20" font-size="14">✅ Attorney-client privilege protection</text>
      <text x="0" y="45" font-size="14">✅ Secure encrypted storage</text>
      <text x="0" y="70" font-size="14">⏰ 90-day retention for non-clients</text>
    </g>
    
    <!-- Expandable Sections -->
    <g transform="translate(0, 130)">
      <rect x="0" y="0" width="660" height="30" fill="#f8fafc" stroke="#e2e8f0" rx="4"/>
      <text x="10" y="20" font-size="14" font-weight="bold">▼ View Full Legal Terms</text>
      
      <rect x="0" y="35" width="660" height="30" fill="#f8fafc" stroke="#e2e8f0" rx="4"/>
      <text x="10" y="55" font-size="14" font-weight="bold">▼ Data Retention Timeline</text>
      
      <rect x="0" y="70" width="660" height="30" fill="#f8fafc" stroke="#e2e8f0" rx="4"/>
      <text x="10" y="90" font-size="14" font-weight="bold">▼ Your Rights &amp; Contact Info</text>
    </g>
    
    <!-- Timeline Visualization -->
    <g transform="translate(0, 220)">
      <text x="0" y="20" font-size="14" font-weight="bold">Timeline:</text>
      
      <!-- Timeline -->
      <line x1="50" y1="40" x2="400" y2="40" stroke="#e5e7eb" stroke-width="3"/>
      
      <!-- Timeline Points -->
      <circle cx="50" cy="40" r="6" fill="#22c55e"/>
      <text x="30" y="60" font-size="12">Upload</text>
      
      <circle cx="225" cy="40" r="6" fill="#f59e0b"/>
      <text x="195" y="60" font-size="12">90 days</text>
      
      <circle cx="400" cy="40" r="6" fill="#ef4444"/>
      <text x="365" y="60" font-size="12">Auto-purge</text>
      
      <!-- Labels -->
      <text x="30" y="80" font-size="10" fill="#666">(unless consultation</text>
      <text x="35" y="92" font-size="10" fill="#666">scheduled)</text>
    </g>
    
    <!-- Checkbox -->
    <g transform="translate(0, 340)">
      <rect x="0" y="0" width="18" height="18" fill="white" stroke="#ccc" rx="3"/>
      <text x="28" y="14" font-size="14">I have read and agree to these terms</text>
    </g>
    
    <!-- Enhanced Buttons -->
    <g transform="translate(0, 380)">
      <rect x="0" y="0" width="80" height="35" fill="#e0f2fe" stroke="#0ea5e9" rx="6"/>
      <text x="20" y="22" font-size="12">❓ Questions?</text>
      
      <rect x="90" y="0" width="80" height="35" fill="#f3f4f6" stroke="#ccc" rx="6"/>
      <text x="110" y="22" font-size="12">📄 Download</text>
      
      <rect x="180" y="0" width="60" height="35" fill="#e5e7eb" stroke="#ccc" rx="6"/>
      <text x="200" y="22" font-size="14">Cancel</text>
      
      <rect x="560" y="0" width="100" height="35" fill="#2563eb" rx="6"/>
      <text x="595" y="22" fill="white" font-size="14">Continue</text>
    </g>
  </g>
</svg>