<svg width="1200" height="900" xmlns="http://www.w3.org/2000/svg">
  <!-- Background -->
  <rect width="1200" height="900" fill="#f5f5f5"/>
  <!-- Main Container -->
  <rect x="50" y="50" width="1100" height="800" fill="white" stroke="#ddd" stroke-width="2" rx="8"/>
  
  <!-- Header with AI Intelligence -->
  <rect x="50" y="50" width="1100" height="70" fill="#2563eb" rx="8 8 0 0"/>
  <text x="600" y="90" fill="white" font-size="20" font-weight="bold" text-anchor="middle">AI-Powered Evidence Intelligence Center</text>
  <text x="600" y="110" fill="white" font-size="14" text-anchor="middle">Real-time scoring • Predictive analysis • USCIS compliance checking</text>
  
  <!-- AI Summary Dashboard -->
  <g transform="translate(70, 140)">
    <rect x="0" y="0" width="1060" height="100" fill="#f0f9ff" stroke="#0ea5e9" rx="8"/>
    
    <!-- Central Score with Prediction -->
    <g transform="translate(450, 20)">
      <circle cx="30" cy="30" r="35" fill="#22c55e" stroke="#166534" stroke-width="4"/>
      <text x="30" y="37" fill="white" font-size="18" font-weight="bold" text-anchor="middle">87%</text>
      <text x="30" y="70" font-size="14" font-weight="bold" text-anchor="middle" fill="#22c55e">Excellent Candidate</text>
    </g>
    
    <!-- AI Insights Panel -->
    <g transform="translate(20, 20)">
      <text x="0" y="15" font-size="14" font-weight="bold">AI Analysis:</text>
      <text x="0" y="35" font-size="11" fill="#0ea5e9">95% approval probability based on similar cases</text>
      <text x="0" y="50" font-size="11" fill="#0ea5e9">Strongest areas: Publications, Awards</text>
      <text x="0" y="65" font-size="11" fill="#0ea5e9">Recommendation: Submit immediately</text>
    </g>
    
    <!-- Prediction Panel -->
    <g transform="translate(750, 20)">
      <text x="0" y="15" font-size="14" font-weight="bold">Predictions:</text>
      <text x="0" y="35" font-size="11" fill="#22c55e">Processing time: 4-6 months</text>
      <text x="0" y="50" font-size="11" fill="#22c55e">RFE probability: 8% (Very Low)</text>
      <text x="0" y="65" font-size="11" fill="#22c55e">Success rate: 94%</text>
    </g>
  </g>
  
  <!-- Advanced Criteria Matrix -->
  <g transform="translate(70, 260)">
    <text x="0" y="20" font-size="16" font-weight="bold">AI-Enhanced Criteria Assessment:</text>
    
    <!-- Dynamic Criteria Grid -->
    <g transform="translate(0, 35)">
      <!-- Row 1 -->
      <g transform="translate(0, 0)">
        <!-- Awards -->
        <rect x="0" y="0" width="260" height="80" fill="#f0fdf4" stroke="#22c55e" stroke-width="2" rx="6"/>
        <text x="15" y="20" font-size="13" font-weight="bold">1. Awards/Prizes</text>
        <text x="15" y="35" font-size="10" fill="#6b7280">AI Score: 92% • Strength: Exceptional</text>
        <text x="15" y="50" font-size="10" fill="#22c55e">Evidence: 4 major awards detected</text>
        <text x="15" y="65" font-size="10" fill="#22c55e">Impact analysis: Industry-leading</text>
        
        <!-- Publications -->
        <rect x="270" y="0" width="260" height="80" fill="#f0fdf4" stroke="#22c55e" stroke-width="2" rx="6"/>
        <text x="285" y="20" font-size="13" font-weight="bold">2. Publications</text>
        <text x="285" y="35" font-size="10" fill="#6b7280">AI Score: 94% • Strength: Outstanding</text>
        <text x="285" y="50" font-size="10" fill="#22c55e">Evidence: 15 high-impact papers</text>
        <text x="285" y="65" font-size="10" fill="#22c55e">Citation analysis: 847 total</text>
        
        <!-- Critical Role -->
        <rect x="540" y="0" width="260" height="80" fill="#fffbeb" stroke="#f59e0b" stroke-width="2" rx="6"/>
        <text x="555" y="20" font-size="13" font-weight="bold">3. Critical Role</text>
        <text x="555" y="35" font-size="10" fill="#6b7280">AI Score: 78% • Strength: Strong</text>
        <text x="555" y="50" font-size="10" fill="#f59e0b">Evidence: Leadership positions</text>
        <text x="555" y="65" font-size="10" fill="#f59e0b">Role impact: High responsibility</text>
        
        <!-- Membership -->
        <rect x="810" y="0" width="250" height="80" fill="#f0fdf4" stroke="#22c55e" stroke-width="2" rx="6"/>
        <text x="825" y="20" font-size="13" font-weight="bold">4. Membership</text>
        <text x="825" y="35" font-size="10" fill="#6b7280">AI Score: 85% • Strength: Excellent</text>
        <text x="825" y="50" font-size="10" fill="#22c55e">Evidence: IEEE Senior Member</text>
        <text x="825" y="65" font-size="10" fill="#22c55e">Status: Elite recognition</text>
      </g>
      
      <!-- Row 2 -->
      <g transform="translate(0, 90)">
        <!-- Media -->
        <rect x="0" y="0" width="260" height="80" fill="#fef2f2" stroke="#ef4444" stroke-width="2" rx="6"/>
        <text x="15" y="20" font-size="13" font-weight="bold">5. Media Coverage</text>
        <text x="15" y="35" font-size="10" fill="#6b7280">AI Score: 45% • Strength: Needs Work</text>
        <text x="15" y="50" font-size="10" fill="#ef4444">Evidence: Limited press coverage</text>
        <text x="15" y="65" font-size="10" fill="#ef4444">Suggestion: Seek media outreach</text>
        
        <!-- Judging -->
        <rect x="270" y="0" width="260" height="80" fill="#fffbeb" stroke="#f59e0b" stroke-width="2" rx="6"/>
        <text x="285" y="20" font-size="13" font-weight="bold">6. Judging Work</text>
        <text x="285" y="35" font-size="10" fill="#6b7280">AI Score: 72% • Strength: Good</text>
        <text x="285" y="50" font-size="10" fill="#f59e0b">Evidence: Conference reviewer</text>
        <text x="285" y="65" font-size="10" fill="#f59e0b">Pattern: Consistent peer review</text>
        
        <!-- Commercial Success -->
        <rect x="540" y="0" width="260" height="80" fill="#f0fdf4" stroke="#22c55e" stroke-width="2" rx="6"/>
        <text x="555" y="20" font-size="13" font-weight="bold">7. Commercial Success</text>
        <text x="555" y="35" font-size="10" fill="#6b7280">AI Score: 88% • Strength: Excellent</text>
        <text x="555" y="50" font-size="10" fill="#22c55e">Evidence: 3 patents, 1 startup</text>
        <text x="555" y="65" font-size="10" fill="#22c55e">Market value: $2.4M estimated</text>
        
        <!-- High Salary -->
        <rect x="810" y="0" width="250" height="80" fill="#f0fdf4" stroke="#22c55e" stroke-width="2" rx="6"/>
        <text x="825" y="20" font-size="13" font-weight="bold">8. High Salary</text>
        <text x="825" y="35" font-size="10" fill="#6b7280">AI Score: 91% • Strength: Outstanding</text>
        <text x="825" y="50" font-size="10" fill="#22c55e">Evidence: Top 10% salary range</text>
        <text x="825" y="65" font-size="10" fill="#22c55e">Benchmark: Above market rate</text>
      </g>
    </g>
  </g>
  
  <!-- Evidence Intelligence Panel -->
  <g transform="translate(70, 450)">
    <rect x="0" y="0" width="1060" height="120" fill="#fef7ff" stroke="#a855f7" rx="6"/>
    <text x="15" y="25" font-size="16" font-weight="bold">Evidence Intelligence &amp; Document Analysis:</text>
    
    <!-- Document Analysis -->
    <g transform="translate(15, 35)">
      <!-- High-Impact Document -->
      <g transform="translate(0, 0)">
        <rect x="0" y="0" width="340" height="70" fill="#ecfdf5" stroke="#22c55e" rx="4"/>
        <text x="10" y="18" font-size="12" font-weight="bold">Nature_Quantum_ML_2024.pdf</text>
        <text x="10" y="33" font-size="10" fill="#6b7280">AI Impact Score: 9.8/10 • Citations: 47 • H-index contribution: +0.8</text>
        <text x="10" y="48" font-size="10" fill="#22c55e">USCIS Value: Exceptional • Criterion match: Publications (96%)</text>
        <text x="10" y="63" font-size="10" fill="#22c55e">Key phrases: "breakthrough methodology", "industry standard"</text>
      </g>
      
      <!-- Patent Document -->
      <g transform="translate(350, 0)">
        <rect x="0" y="0" width="340" height="70" fill="#f0f9ff" stroke="#0ea5e9" rx="4"/>
        <text x="10" y="18" font-size="12" font-weight="bold">US_Patent_11234567_2023.pdf</text>
        <text x="10" y="33" font-size="10" fill="#6b7280">AI Impact Score: 8.9/10 • Commercial value: $1.2M • Forward citations: 12</text>
        <text x="10" y="48" font-size="10" fill="#0ea5e9">USCIS Value: High • Criterion match: Commercial Success (94%)</text>
        <text x="10" y="63" font-size="10" fill="#0ea5e9">Innovation level: Significant advancement in quantum computing</text>
      </g>
      
      <!-- Award Document -->
      <g transform="translate(700, 0)">
        <rect x="0" y="0" width="340" height="70" fill="#fffbeb" stroke="#f59e0b" rx="4"/>
        <text x="10" y="18" font-size="12" font-weight="bold">IEEE_Excellence_Award_2023.pdf</text>
        <text x="10" y="33" font-size="10" fill="#6b7280">AI Impact Score: 8.5/10 • Peer recognition: Industry-wide • Recipients: 0.1%</text>
        <text x="10" y="48" font-size="10" fill="#f59e0b">USCIS Value: High • Criterion match: Awards (91%)</text>
        <text x="10" y="63" font-size="10" fill="#f59e0b">Selection criteria: "Outstanding contributions to quantum research"</text>
      </g>
    </g>
  </g>
  
  <!-- AI Recommendations Panel -->
  <g transform="translate(70, 590)">
    <rect x="0" y="0" width="1060" height="80" fill="#ecfdf5" stroke="#22c55e" rx="6"/>
    <text x="15" y="25" font-size="16" font-weight="bold">AI Strategic Recommendations:</text>
    
    <g transform="translate(15, 35)">
      <text x="0" y="15" font-size="12" fill="#22c55e">Case Strength: Excellent (87%) - Submit with confidence</text>
      <text x="0" y="30" font-size="12" fill="#f59e0b">Quick Win: Add 2-3 media articles to boost Media Coverage criterion to 70%+</text>
      <text x="0" y="45" font-size="12" fill="#0ea5e9">Timeline: Optimal filing window is next 30 days based on processing trends</text>
      
      <!-- Action Recommendations -->
      <g transform="translate(700, -5)">
        <rect x="0" y="0" width="100" height="25" fill="#22c55e" rx="4"/>
        <text x="50" y="17" fill="white" font-size="11" text-anchor="middle">File Now</text>
        
        <rect x="110" y="0" width="120" height="25" fill="#3b82f6" rx="4"/>
        <text x="170" y="17" fill="white" font-size="11" text-anchor="middle">Optimize Media</text>
        
        <rect x="240" y="0" width="100" height="25" fill="#7c3aed" rx="4"/>
        <text x="290" y="17" fill="white" font-size="11" text-anchor="middle">AI Report</text>
      </g>
    </g>
  </g>
  
  <!-- Advanced Action Bar -->
  <g transform="translate(70, 690)">
    <rect x="0" y="0" width="120" height="40" fill="#6b7280" rx="6"/>
    <text x="60" y="25" fill="white" font-size="12" text-anchor="middle">Export Analytics</text>
    
    <rect x="140" y="0" width="140" height="40" fill="#7c3aed" rx="6"/>
    <text x="210" y="25" fill="white" font-size="12" text-anchor="middle">AI Deep Analysis</text>
    
    <rect x="300" y="0" width="120" height="40" fill="#f59e0b" rx="6"/>
    <text x="360" y="25" fill="white" font-size="12" text-anchor="middle">Generate Report</text>
    
    <rect x="440" y="0" width="140" height="40" fill="#22c55e" rx="6"/>
    <text x="510" y="25" fill="white" font-size="12" text-anchor="middle">Share with Attorney</text>
    
    <rect x="920" y="0" width="140" height="40" fill="#2563eb" rx="6"/>
    <text x="990" y="25" fill="white" font-size="12" text-anchor="middle">Proceed to Filing</text>
  </g>
  
  <!-- Real-time AI Status -->
  <g transform="translate(70, 740)">
    <rect x="0" y="0" width="1060" height="30" fill="#f0f9ff" stroke="#0ea5e9" rx="4"/>
    <text x="15" y="20" font-size="11">Live AI Analysis: Case strength 87% • 18 documents analyzed • Real-time USCIS policy compliance: 98% • Recommended attorney match: 95% compatibility</text>
  </g>
</svg>