<svg width="1200" height="900" xmlns="http://www.w3.org/2000/svg">
  <!-- Background -->
  <rect width="1200" height="900" fill="#f5f5f5"/>
  <!-- Main Container -->
  <rect x="50" y="50" width="1100" height="800" fill="white" stroke="#ddd" stroke-width="2" rx="8"/>
  
  <!-- Header with Smart Security -->
  <rect x="50" y="50" width="1100" height="70" fill="#2563eb" rx="8 8 0 0"/>
  <text x="600" y="90" fill="white" font-size="20" font-weight="bold" text-anchor="middle">AI-Powered Secure Payment Hub</text>
  <text x="600" y="110" fill="white" font-size="14" text-anchor="middle">Intelligent fraud detection • Dynamic pricing • Multi-currency support</text>
  
  <!-- AI Payment Intelligence Panel -->
  <g transform="translate(70, 140)">
    <rect x="0" y="0" width="1060" height="80" fill="#f0f9ff" stroke="#0ea5e9" rx="6"/>
    <text x="15" y="25" font-size="16" font-weight="bold">Smart Payment Analysis:</text>
    <text x="15" y="45" font-size="12" fill="#0ea5e9">Best pricing detected for your case complexity • Fraud risk: 0.02% (Excellent)</text>
    <text x="15" y="65" font-size="12" fill="#0ea5e9">Optimal payment timing identified • Currency arbitrage saved: $47 • Success probability: 98.7%</text>
    
    <!-- Live Security Indicators -->
    <g transform="translate(800, 15)">
      <rect x="0" y="0" width="80" height="20" fill="#22c55e" rx="4"/>
      <text x="40" y="13" fill="white" font-size="9" text-anchor="middle">Bank Grade</text>
      
      <rect x="90" y="0" width="70" height="20" fill="#3b82f6" rx="4"/>
      <text x="125" y="13" fill="white" font-size="9" text-anchor="middle">AI Verified</text>
      
      <rect x="170" y="0" width="80" height="20" fill="#7c3aed" rx="4"/>
      <text x="210" y="13" fill="white" font-size="9" text-anchor="middle">Multi-Currency</text>
    </g>
  </g>
  
  <!-- Premium Service Package -->
  <g transform="translate(70, 240)">
    <rect x="0" y="0" width="1060" height="160" fill="#f8fafc" stroke="#e2e8f0" stroke-width="2" rx="8"/>
    <text x="20" y="30" font-size="18" font-weight="bold">Premium O-1 Success Package</text>
    
    <g transform="translate(20, 45)">
      <!-- Service Details -->
      <text x="0" y="20" font-size="14" font-weight="bold" fill="#22c55e">Selected Attorney: Dr. Jane Smith, Esq., PhD</text>
      <text x="0" y="38" font-size="12" fill="#6b7280">O-1 Visa Specialist • 99.2% Success Rate • 18 Years Experience</text>
      <text x="0" y="56" font-size="12" fill="#6b7280">Estimated Timeline: 3.8 months (15% faster than average)</text>
      
      <!-- AI-Enhanced Services -->
      <g transform="translate(0, 70)">
        <text x="0" y="15" font-size="12" font-weight="bold">AI-Enhanced Services Included:</text>
        <text x="0" y="30" font-size="11" fill="#0ea5e9">• Document AI analysis &amp; optimization • Real-time case tracking • Predictive RFE prevention</text>
        <text x="0" y="45" font-size="11" fill="#0ea5e9">• 24/7 AI case assistant • Multi-language support • Priority USCIS liaison</text>
      </g>
      
      <!-- Smart Pricing Panel -->
      <g transform="translate(600, 10)">
        <rect x="0" y="0" width="420" height="100" fill="#ecfdf5" stroke="#22c55e" rx="6"/>
        <text x="15" y="20" font-size="14" font-weight="bold">AI-Optimized Pricing:</text>
        
        <g transform="translate(15, 30)">
          <text x="0" y="15" font-size="11" fill="#6b7280">Attorney Fees (AI-negotiated):</text>
          <text x="280" y="15" font-size="11" text-decoration="line-through" fill="#ef4444">$3,500</text>
          <text x="330" y="15" font-size="12" font-weight="bold" fill="#22c55e">$3,200</text>
          
          <text x="0" y="30" font-size="11" fill="#6b7280">USCIS Filing Fee:</text>
          <text x="330" y="30" font-size="11">$705</text>
          
          <text x="0" y="45" font-size="11" fill="#6b7280">AI Service Premium:</text>
          <text x="330" y="45" font-size="11">$247</text>
          
          <line x1="0" y1="52" x2="370" y2="52" stroke="#22c55e"/>
          
          <text x="0" y="67" font-size="16" font-weight="bold">Total Savings: $300</text>
          <text x="260" y="67" font-size="18" font-weight="bold" fill="#22c55e">$4,152</text>
        </g>
      </g>
    </g>
  </g>
  
  <!-- Advanced Payment Methods -->
  <g transform="translate(70, 420)">
    <text x="0" y="20" font-size="16" font-weight="bold">Smart Payment Options:</text>
    
    <g transform="translate(0, 35)">
      <!-- Credit Cards with AI Optimization -->
      <rect x="0" y="0" width="180" height="50" fill="#3b82f6" stroke="#2563eb" stroke-width="3" rx="6"/>
      <text x="90" y="25" fill="white" font-size="12" font-weight="bold" text-anchor="middle">Smart Credit</text>
      <text x="90" y="40" fill="white" font-size="10" text-anchor="middle">Best rate detected</text>
      
      <!-- Crypto Payments -->
      <rect x="190" y="0" width="180" height="50" fill="#f59e0b" rx="6"/>
      <text x="280" y="25" fill="white" font-size="12" font-weight="bold" text-anchor="middle">Cryptocurrency</text>
      <text x="280" y="40" fill="white" font-size="10" text-anchor="middle">5% discount available</text>
      
      <!-- Payment Plans -->
      <rect x="380" y="0" width="180" height="50" fill="#22c55e" rx="6"/>
      <text x="470" y="25" fill="white" font-size="12" font-weight="bold" text-anchor="middle">Payment Plan</text>
      <text x="470" y="40" fill="white" font-size="10" text-anchor="middle">0% APR for 6 months</text>
      
      <!-- Bank Transfer -->
      <rect x="570" y="0" width="180" height="50" fill="#7c3aed" rx="6"/>
      <text x="660" y="25" fill="white" font-size="12" font-weight="bold" text-anchor="middle">Wire Transfer</text>
      <text x="660" y="40" fill="white" font-size="10" text-anchor="middle">Fastest processing</text>
      
      <!-- AI Recommendation -->
      <rect x="760" y="0" width="180" height="50" fill="#ef4444" rx="6"/>
      <text x="850" y="25" fill="white" font-size="12" font-weight="bold" text-anchor="middle">AI Recommended</text>
      <text x="850" y="40" fill="white" font-size="10" text-anchor="middle">Optimal for your case</text>
    </g>
  </g>
  
  <!-- Smart Payment Form -->
  <g transform="translate(70, 510)">
    <rect x="0" y="0" width="1060" height="180" fill="#fef7ff" stroke="#a855f7" rx="6"/>
    <text x="20" y="25" font-size="16" font-weight="bold">AI-Enhanced Payment Processing:</text>
    
    <!-- Left Side: Card Details -->
    <g transform="translate(20, 40)">
      <text x="0" y="20" font-size="14" font-weight="bold">Smart Card Processing</text>
      
      <!-- AI-Validated Card Number -->
      <rect x="0" y="25" width="400" height="40" fill="white" stroke="#22c55e" stroke-width="2" rx="4"/>
      <text x="15" y="40" font-size="14">4532 **** **** 9012</text>
      <text x="15" y="55" font-size="10" fill="#22c55e">Fraud protection active • Bank verified</text>
      <rect x="350" y="30" width="35" height="20" fill="#22c55e" rx="3"/>
      <text x="367" y="43" fill="white" font-size="10" text-anchor="middle">Valid</text>
      
      <!-- Expiry/CVV with Security -->
      <g transform="translate(0, 75)">
        <rect x="0" y="0" width="120" height="35" fill="white" stroke="#22c55e" rx="4"/>
        <text x="15" y="22" font-size="12">12/28</text>
        
        <rect x="130" y="0" width="100" height="35" fill="white" stroke="#22c55e" rx="4"/>
        <text x="145" y="22" font-size="12">***</text>
        
        <rect x="240" y="5" width="80" height="25" fill="#0ea5e9" rx="3"/>
        <text x="280" y="20" fill="white" font-size="9" text-anchor="middle">CVV Secure</text>
      </g>
    </g>
    
    <!-- Right Side: Smart Features -->
    <g transform="translate(450, 40)">
      <text x="0" y="20" font-size="14" font-weight="bold">AI Payment Intelligence</text>
      
      <!-- Real-time Analysis -->
      <rect x="0" y="25" width="570" height="120" fill="#f0f9ff" stroke="#0ea5e9" rx="4"/>
      
      <g transform="translate(15, 40)">
        <text x="0" y="15" font-size="12" font-weight="bold">Live Payment Analysis:</text>
        <text x="0" y="30" font-size="11" fill="#0ea5e9">• Fraud Risk Score: 0.02% (Excellent) • Bank processing: Instant approval likely</text>
        <text x="0" y="45" font-size="11" fill="#0ea5e9">• Currency optimization: USD recommended • Best execution time: Now</text>
        <text x="0" y="60" font-size="11" fill="#0ea5e9">• Success guarantee: 99.8% • Refund protection: Full coverage</text>
        
        <!-- Payment Timeline -->
        <g transform="translate(350, -15)">
          <text x="0" y="15" font-size="12" font-weight="bold">Payment Timeline:</text>
          <text x="0" y="30" font-size="10" fill="#22c55e">Instant: Card processing</text>
          <text x="0" y="45" font-size="10" fill="#22c55e">15 min: Attorney notification</text>
          <text x="0" y="60" font-size="10" fill="#22c55e">1 hour: Case initiation</text>
          <text x="0" y="75" font-size="10" fill="#22c55e">24 hours: Document portal access</text>
        </g>
      </g>
    </g>
  </g>
  
  <!-- Advanced Security &amp; Trust -->
  <g transform="translate(70, 710)">
    <rect x="0" y="0" width="1060" height="60" fill="#ecfdf5" stroke="#22c55e" rx="6"/>
    
    <g transform="translate(20, 15)">
      <text x="0" y="15" font-size="14" font-weight="bold" fill="#166534">Military-Grade Security &amp; Compliance:</text>
      <text x="0" y="35" font-size="11" fill="#166534">256-bit SSL encryption • PCI DSS Level 1 • SOC 2 Type II • GDPR compliant • Real-time fraud monitoring</text>
      
      <!-- Trust Badges -->
      <g transform="translate(700, -5)">
        <rect x="0" y="0" width="60" height="30" fill="#1a1a1a" rx="4"/>
        <text x="30" y="20" fill="white" font-size="9" text-anchor="middle">Visa/MC</text>
        
        <rect x="70" y="0" width="50" height="30" fill="#003087" rx="4"/>
        <text x="95" y="20" fill="white" font-size="9" text-anchor="middle">PayPal</text>
        
        <rect x="130" y="0" width="50" height="30" fill="#ff5722" rx="4"/>
        <text x="155" y="20" fill="white" font-size="9" text-anchor="middle">Stripe</text>
        
        <rect x="190" y="0" width="60" height="30" fill="#00d924" rx="4"/>
        <text x="220" y="20" fill="white" font-size="9" text-anchor="middle">Verified</text>
        
        <rect x="260" y="0" width="80" height="30" fill="#7c3aed" rx="4"/>
        <text x="300" y="20" fill="white" font-size="9" text-anchor="middle">AI Protected</text>
      </g>
    </g>
  </g>
  
  <!-- Smart Action Bar -->
  <g transform="translate(70, 790)">
    <rect x="0" y="0" width="120" height="40" fill="#6b7280" rx="6"/>
    <text x="60" y="25" fill="white" font-size="12" text-anchor="middle">Modify Order</text>
    
    <rect x="140" y="0" width="140" height="40" fill="#7c3aed" rx="6"/>
    <text x="210" y="25" fill="white" font-size="12" text-anchor="middle">Payment Plan</text>
    
    <rect x="300" y="0" width="120" height="40" fill="#f59e0b" rx="6"/>
    <text x="360" y="25" fill="white" font-size="12" text-anchor="middle">Save Card</text>
    
    <rect x="440" y="0" width="140" height="40" fill="#22c55e" rx="6"/>
    <text x="510" y="25" fill="white" font-size="12" text-anchor="middle">AI Optimize</text>
    
    <rect x="920" y="0" width="140" height="40" fill="#2563eb" rx="6"/>
    <text x="990" y="25" fill="white" font-size="12" text-anchor="middle">Complete Payment</text>
  </g>
  
  <!-- Live AI Payment Status -->
  <g transform="translate(70, 840)">
    <rect x="0" y="0" width="1060" height="30" fill="#f0f9ff" stroke="#0ea5e9" rx="4"/>
    <text x="15" y="20" font-size="11">AI Status: Payment optimized for lowest fees • Bank approval ready • Attorney notified • Case setup initiated • Success probability: 99.8%</text>
  </g>
</svg>