<svg width="1100" height="800" xmlns="http://www.w3.org/2000/svg">
  <!-- Background -->
  <rect width="1100" height="800" fill="#f5f5f5"/>
  <!-- Main Container -->
  <rect x="50" y="50" width="1000" height="700" fill="white" stroke="#ddd" stroke-width="2" rx="8"/>
  
  <!-- Header with Enhanced Info -->
  <rect x="50" y="50" width="1000" height="70" fill="#2563eb" rx="8 8 0 0"/>
  <text x="550" y="90" fill="white" font-size="20" font-weight="bold" text-anchor="middle">Advanced Case Management Portal</text>
  <text x="550" y="110" fill="white" font-size="14" text-anchor="middle">Real-time updates • Smart notifications • Document collaboration</text>
  
  <!-- Case Status Dashboard -->
  <g transform="translate(70, 140)">
    <rect x="0" y="0" width="960" height="100" fill="#f8fafc" stroke="#e2e8f0" rx="8"/>
    
    <!-- Left: Case Info -->
    <g transform="translate(20, 20)">
      <text x="0" y="18" font-size="16" font-weight="bold">Case #O1-2024-001234</text>
      <text x="0" y="35" font-size="12" fill="#6b7280">Dr. John Smith • O-1A Extraordinary Ability</text>
      <text x="0" y="50" font-size="12" fill="#6b7280">Attorney: Jane Smith, Esq. • Filed: March 15, 2024</text>
      <text x="0" y="65" font-size="12" fill="#22c55e">Success Probability: 89% • Timeline: On Track</text>
    </g>
    
    <!-- Center: Progress Circle -->
    <g transform="translate(400, 20)">
      <circle cx="30" cy="30" r="25" fill="#f59e0b" stroke="#d97706" stroke-width="3"/>
      <text x="30" y="37" fill="white" font-size="14" font-weight="bold" text-anchor="middle">60%</text>
      <text x="30" y="70" font-size="12" text-anchor="middle">Complete</text>
    </g>
    
    <!-- Right: Key Metrics -->
    <g transform="translate(520, 20)">
      <text x="0" y="15" font-size="12" font-weight="bold">Key Metrics:</text>
      <text x="0" y="30" font-size="11" fill="#6b7280">Days Active: 12</text>
      <text x="0" y="45" font-size="11" fill="#6b7280">Documents: 15/18</text>
      <text x="0" y="60" font-size="11" fill="#6b7280">Est. Decision: Jun 2024</text>
      
      <g transform="translate(200, 0)">
        <text x="0" y="15" font-size="12" font-weight="bold">Current Phase:</text>
        <rect x="0" y="20" width="100" height="20" fill="#f59e0b" rx="4"/>
        <text x="25" y="33" fill="white" font-size="10">USCIS Filing</text>
      </g>
    </g>
    
    <!-- Live Status Indicator -->
    <g transform="translate(850, 25)">
      <circle cx="10" cy="10" r="6" fill="#22c55e"/>
      <text x="25" y="15" font-size="11" fill="#22c55e">Live Updates</text>
      <text x="25" y="30" font-size="10" fill="#6b7280">Last sync: 2 min ago</text>
    </g>
  </g>
  
  <!-- Enhanced Timeline -->
  <g transform="translate(70, 260)">
    <text x="0" y="20" font-size="16" font-weight="bold">Interactive Case Timeline:</text>
    
    <g transform="translate(0, 40)">
      <!-- Enhanced timeline with dates -->
      <rect x="0" y="45" width="960" height="4" fill="#e5e7eb" rx="2"/>
      <rect x="0" y="45" width="576" height="4" fill="#22c55e" rx="2"/>
      <rect x="576" y="45" width="96" height="4" fill="#f59e0b" rx="2"/>
      
      <!-- Step 1: Documents Collected -->
      <g transform="translate(0, 0)">
        <circle cx="0" cy="47" r="12" fill="#22c55e"/>
        <text x="0" y="52" fill="white" font-size="10" text-anchor="middle">✓</text>
        <text x="0" y="70" font-size="11" text-anchor="middle" font-weight="bold">Documents</text>
        <text x="0" y="85" font-size="10" text-anchor="middle" fill="#22c55e">Completed</text>
        <text x="0" y="100" font-size="9" text-anchor="middle" fill="#6b7280">Mar 15</text>
      </g>
      
      <!-- Step 2: Attorney Review -->
      <g transform="translate(192, 0)">
        <circle cx="0" cy="47" r="12" fill="#22c55e"/>
        <text x="0" y="52" fill="white" font-size="10" text-anchor="middle">✓</text>
        <text x="0" y="70" font-size="11" text-anchor="middle" font-weight="bold">Review</text>
        <text x="0" y="85" font-size="10" text-anchor="middle" fill="#22c55e">Completed</text>
        <text x="0" y="100" font-size="9" text-anchor="middle" fill="#6b7280">Mar 20</text>
      </g>
      
      <!-- Step 3: Evidence Package -->
      <g transform="translate(384, 0)">
        <circle cx="0" cy="47" r="12" fill="#22c55e"/>
        <text x="0" y="52" fill="white" font-size="10" text-anchor="middle">✓</text>
        <text x="0" y="70" font-size="11" text-anchor="middle" font-weight="bold">Evidence</text>
        <text x="0" y="85" font-size="10" text-anchor="middle" fill="#22c55e">Completed</text>
        <text x="0" y="100" font-size="9" text-anchor="middle" fill="#6b7280">Mar 22</text>
      </g>
      
      <!-- Step 4: USCIS Filing (Current) -->
      <g transform="translate(576, 0)">
        <circle cx="0" cy="47" r="12" fill="#f59e0b"/>
        <text x="0" y="52" fill="white" font-size="10" text-anchor="middle">⏳</text>
        <text x="0" y="70" font-size="11" text-anchor="middle" font-weight="bold">USCIS Filing</text>
        <text x="0" y="85" font-size="10" text-anchor="middle" fill="#f59e0b">In Progress</text>
        <text x="0" y="100" font-size="9" text-anchor="middle" fill="#6b7280">Mar 25</text>
      </g>
      
      <!-- Step 5: USCIS Review -->
      <g transform="translate(768, 0)">
        <circle cx="0" cy="47" r="12" fill="#e5e7eb"/>
        <text x="0" y="52" fill="#9ca3af" font-size="10" text-anchor="middle">5</text>
        <text x="0" y="70" font-size="11" text-anchor="middle" font-weight="bold">USCIS Review</text>
        <text x="0" y="85" font-size="10" text-anchor="middle" fill="#9ca3af">Pending</text>
        <text x="0" y="100" font-size="9" text-anchor="middle" fill="#6b7280">Est. Apr 15</text>
      </g>
      
      <!-- Step 6: Decision -->
      <g transform="translate(960, 0)">
        <circle cx="0" cy="47" r="12" fill="#e5e7eb"/>
        <text x="0" y="52" fill="#9ca3af" font-size="10" text-anchor="middle">6</text>
        <text x="0" y="70" font-size="11" text-anchor="middle" font-weight="bold">Decision</text>
        <text x="0" y="85" font-size="10" text-anchor="middle" fill="#9ca3af">Pending</text>
        <text x="0" y="100" font-size="9" text-anchor="middle" fill="#6b7280">Est. Jun 1</text>
      </g>
    </g>
  </g>
  
  <!-- Activity Feed -->
  <g transform="translate(70, 420)">
    <text x="0" y="20" font-size="16" font-weight="bold">Live Activity Feed:</text>
    
    <!-- Recent Activity with Enhanced Details -->
    <g transform="translate(0, 35)">
      <!-- Activity 1 -->
      <rect x="0" y="0" width="960" height="50" fill="#f0fdf4" stroke="#22c55e" rx="6"/>
      <g transform="translate(15, 15)">
        <text x="0" y="15" font-size="13" font-weight="bold">Form I-129 submitted to USCIS</text>
        <text x="0" y="30" font-size="11" fill="#6b7280">Today, 2:30 PM - Receipt number: MSC2490123456 • Priority processing requested</text>
      </g>
      <rect x="800" y="10" width="120" height="30" fill="#22c55e" rx="4"/>
      <text x="860" y="28" fill="white" font-size="11" text-anchor="middle">Track USCIS</text>
      
      <!-- Activity 2 -->
      <rect x="0" y="60" width="960" height="50" fill="#fffbeb" stroke="#f59e0b" rx="6"/>
      <g transform="translate(15, 75)">
        <text x="0" y="15" font-size="13" font-weight="bold">Attorney final review completed</text>
        <text x="0" y="30" font-size="11" fill="#6b7280">March 24, 3:45 PM - All documents approved • Ready for USCIS submission</text>
      </g>
      <rect x="800" y="70" width="120" height="30" fill="#3b82f6" rx="4"/>
      <text x="860" y="88" fill="white" font-size="11" text-anchor="middle">View Comments</text>
      
      <!-- Activity 3 -->
      <rect x="0" y="120" width="960" height="50" fill="#f8fafc" stroke="#94a3b8" rx="6"/>
      <g transform="translate(15, 135)">
        <text x="0" y="15" font-size="13" font-weight="bold">Document package finalized</text>
        <text x="0" y="30" font-size="11" fill="#6b7280">March 22, 11:20 AM - 18 supporting documents organized and indexed</text>
      </g>
      <rect x="800" y="130" width="120" height="30" fill="#6b7280" rx="4"/>
      <text x="860" y="148" fill="white" font-size="11" text-anchor="middle">Download PDF</text>
    </g>
  </g>
  
  <!-- Enhanced Action Panel -->
  <g transform="translate(70, 640)">
    <text x="0" y="20" font-size="16" font-weight="bold">Case Management Tools:</text>
    
    <g transform="translate(0, 35)">
      <rect x="0" y="0" width="140" height="40" fill="#3b82f6" rx="6"/>
      <text x="70" y="25" fill="white" font-size="12" text-anchor="middle">📁 View All Documents</text>
      
      <rect x="150" y="0" width="140" height="40" fill="#22c55e" rx="6"/>
      <text x="220" y="25" fill="white" font-size="12" text-anchor="middle">📞 Contact Attorney</text>
      
      <rect x="300" y="0" width="140" height="40" fill="#f59e0b" rx="6"/>
      <text x="370" y="25" fill="white" font-size="12" text-anchor="middle">📤 Upload Files</text>
      
      <rect x="450" y="0" width="140" height="40" fill="#7c3aed" rx="6"/>
      <text x="520" y="25" fill="white" font-size="12" text-anchor="middle">📅 Schedule Meeting</text>
      
      <rect x="600" y="0" width="140" height="40" fill="#ef4444" rx="6"/>
      <text x="670" y="25" fill="white" font-size="12" text-anchor="middle">📧 Message Center</text>
      
      <rect x="750" y="0" width="140" height="40" fill="#06b6d4" rx="6"/>
      <text x="820" y="25" fill="white" font-size="12" text-anchor="middle">📊 Progress Report</text>
    </g>
  </g>
  
  <!-- Smart Notification -->
  <g transform="translate(70, 700)">
    <rect x="0" y="0" width="960" height="35" fill="#dbeafe" stroke="#3b82f6" rx="6"/>
    <text x="15" y="15" font-size="12" font-weight="bold" fill="#1e40af">🔔 Smart Alert:</text>
    <text x="15" y="28" font-size="11" fill="#1e40af">USCIS receipt notice expected within 2-3 business days. We'll notify you immediately when received.</text>
  </g>
</svg>