<svg width="1400" height="900" xmlns="http://www.w3.org/2000/svg">
  <!-- Background -->
  <rect width="1400" height="900" fill="#f5f5f5"/>
  <!-- Main Container -->
  <rect x="50" y="50" width="1300" height="800" fill="white" stroke="#ddd" stroke-width="2" rx="8"/>
  
  <!-- Header with AI Communication Intelligence -->
  <rect x="50" y="50" width="1300" height="80" fill="#2563eb" rx="8 8 0 0"/>
  <text x="700" y="95" fill="white" font-size="22" font-weight="bold" text-anchor="middle">AI-Powered Communication Intelligence Center</text>
  <text x="700" y="115" fill="white" font-size="14" text-anchor="middle">Multi-modal messaging • Real-time translation • Voice-to-text • AI meeting summaries • Predictive responses</text>
  
  <!-- Left Panel: AI-Enhanced Contacts -->
  <g transform="translate(70, 150)">
    <rect x="0" y="0" width="300" height="670" fill="#f8fafc" stroke="#e2e8f0" stroke-width="2" rx="8"/>
    
    <!-- Panel Header -->
    <rect x="0" y="0" width="300" height="50" fill="#3b82f6" rx="8 8 0 0"/>
    <text x="15" y="30" fill="white" font-size="16" font-weight="bold">AI Communication Hub</text>
    
    <!-- AI Assistant -->
    <g transform="translate(15, 60)">
      <rect x="0" y="0" width="270" height="60" fill="#ecfdf5" stroke="#22c55e" rx="6"/>
      <circle cx="25" cy="30" r="18" fill="#22c55e"/>
      <text x="25" y="36" fill="white" font-size="12" font-weight="bold" text-anchor="middle">AI</text>
      
      <g transform="translate(50, 15)">
        <text x="0" y="15" font-size="13" font-weight="bold">AI Legal Assistant</text>
        <text x="0" y="30" font-size="10" fill="#22c55e">Always available • Real-time help</text>
      </g>
      
      <circle cx="250" cy="15" r="6" fill="#10b981"/>
      <text x="220" y="50" font-size="9" fill="#22c55e">3 smart suggestions ready</text>
    </g>
    
    <!-- Attorney with AI Insights -->
    <g transform="translate(15, 130)">
      <rect x="0" y="0" width="270" height="80" fill="#dbeafe" stroke="#3b82f6" stroke-width="2" rx="6"/>
      <circle cx="25" cy="30" r="18" fill="#3b82f6"/>
      <text x="25" y="36" fill="white" font-size="12" text-anchor="middle">JS</text>
      
      <g transform="translate(50, 10)">
        <text x="0" y="15" font-size="13" font-weight="bold">Dr. Jane Smith, Esq.</text>
        <text x="0" y="30" font-size="10" fill="#3b82f6">Senior Partner • O-1 Specialist</text>
        <text x="0" y="45" font-size="10" fill="#22c55e">Online now • Response time: less than 2 min</text>
      </g>
      
      <!-- AI Insights Badge -->
      <g transform="translate(180, 10)">
        <rect x="0" y="0" width="80" height="15" fill="#7c3aed" rx="3"/>
        <text x="40" y="10" fill="white" font-size="8" text-anchor="middle">AI Insights</text>
      </g>
      
      <!-- Live Status -->
      <circle cx="250" cy="15" r="6" fill="#22c55e"/>
      <text x="15" y="70" font-size="9" fill="#3b82f6">94% case confidence • Timeline: On track</text>
    </g>
    
    <!-- Paralegal with Smart Features -->
    <g transform="translate(15, 220)">
      <rect x="0" y="0" width="270" height="70" fill="#fef7ff" stroke="#a855f7" rx="6"/>
      <circle cx="25" cy="30" r="15" fill="#a855f7"/>
      <text x="25" y="36" fill="white" font-size="10" text-anchor="middle">MR</text>
      
      <g transform="translate(50, 15)">
        <text x="0" y="15" font-size="12" font-weight="bold">Mike Rodriguez</text>
        <text x="0" y="30" font-size="10" fill="#a855f7">Senior Paralegal • Document Specialist</text>
        <text x="0" y="45" font-size="10" fill="#f59e0b">Away • Returns in 2 hours</text>
      </g>
      
      <circle cx="250" cy="15" r="5" fill="#f59e0b"/>
    </g>
    
    <!-- AI Communication Analytics -->
    <g transform="translate(15, 300)">
      <rect x="0" y="0" width="270" height="100" fill="#f0f9ff" stroke="#0ea5e9" rx="6"/>
      <text x="15" y="20" font-size="12" font-weight="bold">Communication Analytics:</text>
      
      <g transform="translate(15, 25)">
        <text x="0" y="20" font-size="10" fill="#0ea5e9">• Response rate: 98% within 1 hour</text>
        <text x="0" y="35" font-size="10" fill="#0ea5e9">• Messages today: 12 (AI-prioritized)</text>
        <text x="0" y="50" font-size="10" fill="#0ea5e9">• Video calls: 3 scheduled this week</text>
        <text x="0" y="65" font-size="10" fill="#0ea5e9">• AI assistance: 87% query resolution</text>
        <text x="0" y="80" font-size="10" fill="#0ea5e9">• Smart suggestions used: 23 today</text>
      </g>
    </g>
    
    <!-- Quick AI Actions -->
    <g transform="translate(15, 420)">
      <text x="0" y="20" font-size="12" font-weight="bold">AI Quick Actions:</text>
      
      <g transform="translate(0, 30)">
        <rect x="0" y="0" width="130" height="30" fill="#22c55e" rx="4"/>
        <text x="65" y="20" fill="white" font-size="10" text-anchor="middle">Smart Summary</text>
        
        <rect x="140" y="0" width="130" height="30" fill="#3b82f6" rx="4"/>
        <text x="205" y="20" fill="white" font-size="10" text-anchor="middle">AI Video Call</text>
        
        <rect x="0" y="40" width="130" height="30" fill="#f59e0b" rx="4"/>
        <text x="65" y="60" fill="white" font-size="10" text-anchor="middle">Auto Translate</text>
        
        <rect x="140" y="40" width="130" height="30" fill="#7c3aed" rx="4"/>
        <text x="205" y="60" fill="white" font-size="10" text-anchor="middle">Meeting Notes</text>
      </g>
    </g>
  </g>
  
  <!-- Main Chat Area with AI Enhancement -->
  <g transform="translate(390, 150)">
    <rect x="0" y="0" width="950" height="670" fill="white" stroke="#e2e8f0" stroke-width="2" rx="8"/>
    
    <!-- Chat Header with AI Features -->
    <rect x="0" y="0" width="950" height="70" fill="#f8fafc" stroke="#e2e8f0" rx="8 8 0 0"/>
    
    <g transform="translate(20, 15)">
      <text x="0" y="20" font-size="16" font-weight="bold">Dr. Jane Smith, Esq. - Case Intelligence Chat</text>
      <text x="0" y="35" font-size="12" fill="#22c55e">Online • Case #O1-2024-001234 • AI Assistant Active</text>
      <text x="0" y="50" font-size="11" fill="#0ea5e9">Real-time case monitoring • Smart suggestions enabled • End-to-end encrypted</text>
    </g>
    
    <!-- Advanced Chat Tools -->
    <g transform="translate(650, 10)">
      <rect x="0" y="0" width="70" height="35" fill="#22c55e" rx="6"/>
      <text x="35" y="23" fill="white" font-size="11" text-anchor="middle">AI Video</text>
      
      <rect x="80" y="0" width="70" height="35" fill="#3b82f6" rx="6"/>
      <text x="115" y="23" fill="white" font-size="11" text-anchor="middle">Smart Meet</text>
      
      <rect x="160" y="0" width="70" height="35" fill="#f59e0b" rx="6"/>
      <text x="195" y="23" fill="white" font-size="11" text-anchor="middle">AI Files</text>
      
      <rect x="240" y="0" width="70" height="35" fill="#7c3aed" rx="6"/>
      <text x="275" y="23" fill="white" font-size="11" text-anchor="middle">Voice AI</text>
    </g>
    
    <!-- AI-Enhanced Message Area -->
    <g transform="translate(20, 90)">
      <!-- AI System Message -->
      <g transform="translate(200, 0)">
        <rect x="0" y="0" width="550" height="50" fill="#f0f9ff" stroke="#0ea5e9" rx="8"/>
        <text x="275" y="18" font-size="11" font-weight="bold" text-anchor="middle" fill="#0ea5e9">AI Case Update</text>
        <text x="275" y="35" font-size="10" text-anchor="middle" fill="#0ea5e9">USCIS receipt notice received • Case tracking activated • Timeline predictions updated</text>
      </g>
      
      <!-- Attorney Message with AI Analysis -->
      <g transform="translate(0, 60)">
        <rect x="0" y="0" width="650" height="120" fill="#f0f9ff" stroke="#3b82f6" stroke-width="2" rx="8"/>
        <circle cx="30" cy="30" r="20" fill="#3b82f6"/>
        <text x="30" y="36" fill="white" font-size="12" text-anchor="middle">JS</text>
        
        <g transform="translate(60, 15)">
          <text x="0" y="18" font-size="14" font-weight="bold">Dr. Jane Smith, Esq.</text>
          <text x="0" y="35" font-size="12" fill="#6b7280">Excellent news! USCIS received our filing. The AI analysis shows strong approval indicators.</text>
          
          <!-- AI-Enhanced File Attachment -->
          <rect x="0" y="45" width="400" height="40" fill="#dbeafe" stroke="#3b82f6" rx="6"/>
          <text x="15" y="60" font-size="11" font-weight="bold" fill="#3b82f6">USCIS_Receipt_MSC2490123456.pdf</text>
          <text x="15" y="75" font-size="10" fill="#3b82f6">AI-analyzed: Priority processing confirmed • Timeline: 3.8 months</text>
        </g>
        
        <!-- AI Insights Panel -->
        <g transform="translate(470, 15)">
          <rect x="0" y="0" width="150" height="90" fill="#ecfdf5" stroke="#22c55e" rx="4"/>
          <text x="10" y="15" font-size="10" font-weight="bold" fill="#22c55e">AI Insights:</text>
          <text x="10" y="30" font-size="9" fill="#22c55e">Success rate: +2%</text>
          <text x="10" y="45" font-size="9" fill="#22c55e">Processing: 15% faster</text>
          <text x="10" y="60" font-size="9" fill="#22c55e">Risk factors: None</text>
          <text x="10" y="75" font-size="9" fill="#22c55e">Confidence: 96%</text>
        </g>
        
        <text x="650" y="110" font-size="10" fill="#9ca3af" text-anchor="end">Today, 2:15 PM</text>
      </g>
      
      <!-- User Response with AI Suggestions -->
      <g transform="translate(250, 190)">
        <rect x="0" y="0" width="650" height="100" fill="#f0fdf4" stroke="#22c55e" stroke-width="2" rx="8"/>
        <circle cx="600" cy="30" r="20" fill="#22c55e"/>
        <text x="600" y="36" fill="white" font-size="12" text-anchor="middle">You</text>
        
        <g transform="translate(30, 15)">
          <text x="0" y="18" font-size="14" font-weight="bold">Dr. John Smith</text>
          <text x="0" y="35" font-size="12" fill="#6b7280">That's wonderful! The AI timeline seems very promising. What should I prepare for next?</text>
        </g>
        
        <!-- AI Smart Reply Suggestions -->
        <g transform="translate(30, 55)">
          <text x="0" y="15" font-size="10" fill="#7c3aed">AI suggested this response based on case context</text>
          <rect x="300" y="0" width="120" height="20" fill="#7c3aed" rx="3"/>
          <text x="360" y="13" fill="white" font-size="9" text-anchor="middle">Used AI suggestion</text>
        </g>
        
        <text x="30" y="95" font-size="10" fill="#9ca3af">Today, 2:45 PM</text>
      </g>
      
      <!-- AI-Powered Meeting Scheduling -->
      <g transform="translate(0, 300)">
        <rect x="0" y="0" width="650" height="140" fill="#fef7ff" stroke="#a855f7" stroke-width="2" rx="8"/>
        <circle cx="30" cy="30" r="20" fill="#a855f7"/>
        <text x="30" y="36" fill="white" font-size="12" text-anchor="middle">JS</text>
        
        <g transform="translate(60, 15)">
          <text x="0" y="18" font-size="14" font-weight="bold">Dr. Jane Smith, Esq.</text>
          <text x="0" y="35" font-size="12" fill="#6b7280">Let's schedule an AI-enhanced strategy session to review the next steps.</text>
          
          <!-- AI Meeting Card -->
          <rect x="0" y="45" width="550" height="70" fill="#f3e8ff" stroke="#a855f7" rx="6"/>
          <text x="15" y="60" font-size="13" font-weight="bold" fill="#a855f7">AI-Powered Strategy Session</text>
          <text x="15" y="75" font-size="11" fill="#a855f7">Tomorrow, 3:00 PM - 4:00 PM • Video + AI case analysis</text>
          <text x="15" y="90" font-size="10" fill="#a855f7">Agenda: USCIS timeline, evidence optimization, RFE preparation</text>
          <text x="15" y="105" font-size="10" fill="#a855f7">AI will provide real-time insights and documentation during call</text>
          
          <rect x="450" y="55" width="80" height="25" fill="#22c55e" rx="4"/>
          <text x="490" y="70" fill="white" font-size="11" text-anchor="middle">Accept &amp; Join</text>
          
          <rect x="450" y="85" width="80" height="25" fill="#3b82f6" rx="4"/>
          <text x="490" y="100" fill="white" font-size="11" text-anchor="middle">Add Calendar</text>
        </g>
        
        <text x="630" y="135" font-size="10" fill="#9ca3af" text-anchor="end">Today, 3:00 PM</text>
      </g>
    </g>
    
    <!-- AI-Enhanced Message Input -->
    <g transform="translate(20, 550)">
      <rect x="0" y="0" width="910" height="100" fill="#f9fafb" stroke="#d1d5db" stroke-width="2" rx="8"/>
      
      <!-- Smart Input Field with AI -->
      <rect x="15" y="15" width="750" height="40" fill="white" stroke="#22c55e" stroke-width="2" rx="6"/>
      <text x="25" y="30" font-size="12" fill="#9ca3af">Type message...</text>
      <text x="25" y="45" font-size="10" fill="#22c55e">AI is suggesting responses based on case context</text>
      
      <!-- AI Smart Suggestions -->
      <g transform="translate(15, 60)">
        <rect x="0" y="0" width="150" height="25" fill="#e0f2fe" stroke="#0ea5e9" rx="4"/>
        <text x="75" y="17" font-size="10" fill="#0ea5e9" text-anchor="middle">"Thank you for the update"</text>
        
        <rect x="160" y="0" width="200" height="25" fill="#e0f2fe" stroke="#0ea5e9" rx="4"/>
        <text x="260" y="17" font-size="10" fill="#0ea5e9" text-anchor="middle">"What documents should I prepare?"</text>
        
        <rect x="370" y="0" width="180" height="25" fill="#e0f2fe" stroke="#0ea5e9" rx="4"/>
        <text x="460" y="17" font-size="10" fill="#0ea5e9" text-anchor="middle">"Schedule follow-up call"</text>
      </g>
      
      <!-- Advanced Input Tools -->
      <g transform="translate(775, 15)">
        <rect x="0" y="0" width="50" height="30" fill="#22c55e" rx="4"/>
        <text x="25" y="20" fill="white" font-size="10" text-anchor="middle">Voice</text>
        
        <rect x="60" y="0" width="50" height="30" fill="#3b82f6" rx="4"/>
        <text x="85" y="20" fill="white" font-size="10" text-anchor="middle">AI Files</text>
        
        <rect x="0" y="35" width="50" height="30" fill="#f59e0b" rx="4"/>
        <text x="25" y="55" fill="white" font-size="10" text-anchor="middle">Translate</text>
        
        <rect x="60" y="35" width="50" height="30" fill="#2563eb" rx="4"/>
        <text x="85" y="55" fill="white" font-size="11" text-anchor="middle">Send</text>
      </g>
    </g>
  </g>
  
  <!-- AI Communication Status Bar -->
  <g transform="translate(70, 840)">
    <rect x="0" y="0" width="1260" height="50" fill="#f0f9ff" stroke="#0ea5e9" stroke-width="2" rx="8"/>
    
    <g transform="translate(20, 10)">
      <text x="0" y="15" font-size="14" font-weight="bold" fill="#0ea5e9">AI Communication Intelligence Status:</text>
      <text x="0" y="30" font-size="11" fill="#0ea5e9">Active features: Real-time translation • Smart responses • Meeting summaries • Case context awareness • Voice-to-text • Document AI</text>
      
      <!-- Live Status Indicators -->
      <g transform="translate(900, -5)">
        <rect x="0" y="0" width="80" height="20" fill="#22c55e" rx="4"/>
        <text x="40" y="13" fill="white" font-size="9" text-anchor="middle">Encrypted</text>
        
        <rect x="90" y="0" width="80" height="20" fill="#3b82f6" rx="4"/>
        <text x="130" y="13" fill="white" font-size="9" text-anchor="middle">AI Active</text>
        
        <rect x="180" y="0" width="80" height="20" fill="#7c3aed" rx="4"/>
        <text x="220" y="13" fill="white" font-size="9" text-anchor="middle">Monitoring</text>
        
        <rect x="0" y="25" width="80" height="20" fill="#f59e0b" rx="4"/>
        <text x="40" y="38" fill="white" font-size="9" text-anchor="middle">Translating</text>
        
        <rect x="90" y="25" width="80" height="20" fill="#ef4444" rx="4"/>
        <text x="130" y="38" fill="white" font-size="9" text-anchor="middle">Analytics</text>
        
        <rect x="180" y="25" width="80" height="20" fill="#10b981" rx="4"/>
        <text x="220" y="38" fill="white" font-size="9" text-anchor="middle">Optimized</text>
      </g>
    </g>
  </g>
</svg>