<svg width="500" height="900" xmlns="http://www.w3.org/2000/svg">
  <!-- Background -->
  <rect width="500" height="900" fill="#f5f5f5"/>
  <!-- Mobile Container -->
  <rect x="25" y="25" width="450" height="850" fill="white" stroke="#ddd" stroke-width="2" rx="20"/>
  
  <!-- AI-Enhanced Mobile Header -->
  <rect x="25" y="25" width="450" height="80" fill="#2563eb" rx="20 20 0 0"/>
  <text x="250" y="70" fill="white" font-size="20" font-weight="bold" text-anchor="middle">GateO1 AI Mobile</text>
  
  <!-- Enhanced Status Bar -->
  <g transform="translate(40, 45)">
    <text x="0" y="15" fill="white" font-size="11">9:41 AM</text>
    <circle cx="370" cy="10" r="4" fill="#22c55e"/>
    <text x="350" y="15" fill="white" font-size="10">AI Active</text>
    <text x="340" y="25" fill="white" font-size="9">100% • 5G</text>
  </g>
  
  <!-- AI Smart Navigation -->
  <g transform="translate(35, 125)">
    <rect x="0" y="0" width="420" height="60" fill="#f0f9ff" stroke="#0ea5e9" stroke-width="2" rx="10"/>
    
    <!-- AI-Enhanced Tabs -->
    <rect x="10" y="10" width="100" height="40" fill="#2563eb" rx="8"/>
    <text x="60" y="32" fill="white" font-size="12" font-weight="bold" text-anchor="middle">AI Dashboard</text>
    
    <text x="140" y="32" font-size="11" text-anchor="middle" fill="#6b7280">Smart Docs</text>
    <text x="220" y="32" font-size="11" text-anchor="middle" fill="#6b7280">AI Chat</text>
    <text x="300" y="32" font-size="11" text-anchor="middle" fill="#6b7280">Analytics</text>
    <text x="380" y="32" font-size="11" text-anchor="middle" fill="#6b7280">Voice</text>
  </g>
  
  <!-- AI Case Intelligence Panel -->
  <g transform="translate(35, 205)">
    <rect x="0" y="0" width="420" height="140" fill="#f0f9ff" stroke="#0ea5e9" stroke-width="2" rx="12"/>
    
    <g transform="translate(20, 20)">
      <text x="0" y="18" font-size="17" font-weight="bold">AI Case Intelligence</text>
      <text x="0" y="35" font-size="14" fill="#0ea5e9">Case #O1-2024-001234 • Dr. John Smith</text>
      <text x="0" y="52" font-size="13" fill="#f59e0b">Status: USCIS Filing • AI Monitoring Active</text>
      <text x="0" y="69" font-size="12" fill="#22c55e">Success Probability: 96% • Timeline: 15% faster than average</text>
      <text x="0" y="86" font-size="12" fill="#7c3aed">Next Milestone: Receipt notice (Est. 2 days) • AI tracking enabled</text>
      
      <!-- AI Progress Ring -->
      <g transform="translate(320, 20)">
        <circle cx="30" cy="30" r="30" fill="none" stroke="#e5e7eb" stroke-width="5"/>
        <circle cx="30" cy="30" r="30" fill="none" stroke="#22c55e" stroke-width="5" stroke-dasharray="113" stroke-dashoffset="45"/>
        <text x="30" y="37" fill="#22c55e" font-size="16" font-weight="bold" text-anchor="middle">60%</text>
        <text x="30" y="75" font-size="10" text-anchor="middle" fill="#0ea5e9">AI Tracked</text>
      </g>
    </g>
  </g>
  
  <!-- AI-Powered Quick Actions -->
  <g transform="translate(35, 365)">
    <text x="0" y="20" font-size="17" font-weight="bold">AI-Powered Actions</text>
    
    <!-- Enhanced Action Grid with AI -->
    <g transform="translate(0, 35)">
      <!-- Row 1 -->
      <rect x="0" y="0" width="205" height="80" fill="#22c55e" rx="12"/>
      <text x="102" y="25" fill="white" font-size="14" font-weight="bold" text-anchor="middle">Smart Docs</text>
      <text x="102" y="42" fill="white" font-size="13" text-anchor="middle">AI-Organized</text>
      <text x="102" y="57" fill="white" font-size="11" text-anchor="middle">Auto-categorized • OCR ready</text>
      <text x="102" y="70" fill="white" font-size="10" text-anchor="middle">18 docs analyzed</text>
      
      <rect x="215" y="0" width="205" height="80" fill="#3b82f6" rx="12"/>
      <text x="317" y="25" fill="white" font-size="14" font-weight="bold" text-anchor="middle">AI Attorney</text>
      <text x="317" y="42" fill="white" font-size="13" text-anchor="middle">Live Chat</text>
      <text x="317" y="57" fill="white" font-size="11" text-anchor="middle">24/7 legal AI + human</text>
      <text x="317" y="70" fill="white" font-size="10" text-anchor="middle">Response time: less than 1 min</text>
      
      <!-- Row 2 -->
      <rect x="0" y="90" width="205" height="80" fill="#f59e0b" rx="12"/>
      <text x="102" y="115" fill="white" font-size="14" font-weight="bold" text-anchor="middle">AI Upload</text>
      <text x="102" y="132" fill="white" font-size="13" text-anchor="middle">Smart Capture</text>
      <text x="102" y="147" fill="white" font-size="11" text-anchor="middle">OCR + Auto-categorize</text>
      <text x="102" y="160" fill="white" font-size="10" text-anchor="middle">Voice descriptions</text>
      
      <rect x="215" y="90" width="205" height="80" fill="#7c3aed" rx="12"/>
      <text x="317" y="115" fill="white" font-size="14" font-weight="bold" text-anchor="middle">Voice AI</text>
      <text x="317" y="132" fill="white" font-size="13" text-anchor="middle">Talk to System</text>
      <text x="317" y="147" fill="white" font-size="11" text-anchor="middle">Natural language queries</text>
      <text x="317" y="160" fill="white" font-size="10" text-anchor="middle">Multi-language support</text>
    </g>
  </g>
  
  <!-- AI Live Activity Intelligence -->
  <g transform="translate(35, 555)">
    <text x="0" y="20" font-size="17" font-weight="bold">Live AI Intelligence</text>
    
    <!-- AI Activity Stream -->
    <g transform="translate(0, 35)">
      <!-- AI Activity 1 -->
      <rect x="0" y="0" width="420" height="80" fill="#ecfdf5" stroke="#22c55e" stroke-width="2" rx="10"/>
      <g transform="translate(15, 15)">
        <text x="0" y="15" font-size="13" font-weight="bold">AI Alert: Form I-129 submitted successfully</text>
        <text x="0" y="30" font-size="11" fill="#6b7280">Today, 2:30 PM • Receipt: MSC2490123456 • TSC Processing Center</text>
        <text x="0" y="45" font-size="11" fill="#22c55e">AI Analysis: Optimal submission timing • Success indicators strong</text>
        <text x="0" y="60" font-size="10" fill="#22c55e">Next: Receipt notice tracking active • Expected in 2-3 business days</text>
      </g>
      
      <!-- AI Activity 2 -->
      <rect x="0" y="90" width="420" height="80" fill="#f0f9ff" stroke="#0ea5e9" stroke-width="2" rx="10"/>
      <g transform="translate(15, 105)">
        <text x="0" y="15" font-size="13" font-weight="bold">AI Enhancement: Document optimization completed</text>
        <text x="0" y="30" font-size="11" fill="#6b7280">Yesterday, 3:45 PM • 18 documents analyzed and enhanced</text>
        <text x="0" y="45" font-size="11" fill="#0ea5e9">AI Improvements: +12% case strength • Citation analysis complete</text>
        <text x="0" y="60" font-size="10" fill="#0ea5e9">Patent valuations updated • Publication impact scores calculated</text>
      </g>
      
      <!-- AI Activity 3 -->
      <rect x="0" y="180" width="420" height="60" fill="#fef7ff" stroke="#a855f7" stroke-width="2" rx="10"/>
      <g transform="translate(15, 195)">
        <text x="0" y="15" font-size="13" font-weight="bold">Predictive Alert: USCIS timeline update</text>
        <text x="0" y="30" font-size="11" fill="#6b7280">System prediction: Processing 15% faster than historical average</text>
        <text x="0" y="45" font-size="11" fill="#a855f7">Estimated decision: June 1, 2024 (94% confidence) • RFE probability: 3%</text>
      </g>
    </g>
  </g>
  
  <!-- AI Voice Command Panel -->
  <g transform="translate(35, 805)">
    <rect x="0" y="0" width="420" height="50" fill="#ecfdf5" stroke="#22c55e" stroke-width="2" rx="10"/>
    <g transform="translate(15, 15)">
      <text x="0" y="12" font-size="12" font-weight="bold" fill="#166534">AI Voice Ready:</text>
      <text x="0" y="27" font-size="10" fill="#166534">"Hey GateO1, what's my case status?" • "Schedule a meeting" • "Upload new document"</text>
      
      <!-- Voice Activation Button -->
      <circle cx="380" cy="20" r="15" fill="#22c55e"/>
      <text x="380" y="25" fill="white" font-size="12" text-anchor="middle">V</text>
    </g>
  </g>
  
  <!-- AI-Enhanced Bottom Navigation -->
  <g transform="translate(35, 860)">
    <rect x="0" y="0" width="420" height="70" fill="#f8fafc" stroke="#e2e8f0" stroke-width="2" rx="12"/>
    
    <!-- AI-Enhanced Nav Items -->
    <g transform="translate(0, 15)">
      <!-- AI Dashboard (Active) -->
      <g transform="translate(52, 0)">
        <rect x="-20" y="-8" width="40" height="45" fill="#dbeafe" rx="8"/>
        <text x="0" y="8" font-size="16" text-anchor="middle" fill="#2563eb">D</text>
        <text x="0" y="22" font-size="9" text-anchor="middle" fill="#2563eb">AI Dashboard</text>
        <text x="0" y="32" font-size="8" text-anchor="middle" fill="#2563eb">Live insights</text>
      </g>
      
      <!-- Smart Documents -->
      <g transform="translate(136, 0)">
        <text x="0" y="8" font-size="16" text-anchor="middle" fill="#6b7280">F</text>
        <text x="0" y="22" font-size="9" text-anchor="middle" fill="#6b7280">Smart Docs</text>
        <text x="0" y="32" font-size="8" text-anchor="middle" fill="#6b7280">AI-organized</text>
      </g>
      
      <!-- AI Messages -->
      <g transform="translate(220, 0)">
        <text x="0" y="8" font-size="16" text-anchor="middle" fill="#6b7280">M</text>
        <text x="0" y="22" font-size="9" text-anchor="middle" fill="#6b7280">AI Chat</text>
        <text x="0" y="32" font-size="8" text-anchor="middle" fill="#6b7280">24/7 support</text>
        <!-- AI Notification Badge -->
        <circle cx="12" cy="-2" r="7" fill="#22c55e"/>
        <text x="12" y="2" font-size="8" fill="white" text-anchor="middle">AI</text>
      </g>
      
      <!-- Voice AI -->
      <g transform="translate(304, 0)">
        <text x="0" y="8" font-size="16" text-anchor="middle" fill="#6b7280">V</text>
        <text x="0" y="22" font-size="9" text-anchor="middle" fill="#6b7280">Voice AI</text>
        <text x="0" y="32" font-size="8" text-anchor="middle" fill="#6b7280">Speak to ask</text>
      </g>
      
      <!-- Profile -->
      <g transform="translate(388, 0)">
        <text x="0" y="8" font-size="16" text-anchor="middle" fill="#6b7280">P</text>
        <text x="0" y="22" font-size="9" text-anchor="middle" fill="#6b7280">Profile</text>
        <text x="0" y="32" font-size="8" text-anchor="middle" fill="#6b7280">Settings</text>
      </g>
    </g>
    
    <!-- AI Status Indicator -->
    <g transform="translate(350, 50)">
      <circle cx="10" cy="5" r="3" fill="#22c55e"/>
      <text x="20" y="8" font-size="8" fill="#22c55e">AI Online</text>
    </g>
  </g>
</svg>