<svg width="1200" height="800" xmlns="http://www.w3.org/2000/svg">
  <!-- Background -->
  <rect width="1200" height="800" fill="#f5f5f5"/>
  <!-- Main Container -->
  <rect x="50" y="50" width="1100" height="700" fill="white" stroke="#ddd" stroke-width="2" rx="8"/>
  
  <!-- AI-Enhanced Header -->
  <rect x="50" y="50" width="1100" height="70" fill="#2563eb" rx="8 8 0 0"/>
  <text x="600" y="95" fill="white" font-size="20" font-weight="bold" text-anchor="middle">AI-Powered Notification Intelligence Center</text>
  <text x="600" y="115" fill="white" font-size="14" text-anchor="middle">Smart filtering • Predictive alerts • Multi-channel automation • Context-aware priorities</text>
  
  <!-- AI Filter &amp; Analytics Panel -->
  <g transform="translate(70, 140)">
    <rect x="0" y="0" width="1060" height="60" fill="#f0f9ff" stroke="#0ea5e9" rx="8"/>
    
    <!-- AI Filter Tabs -->
    <g transform="translate(15, 15)">
      <rect x="0" y="0" width="100" height="30" fill="#2563eb" rx="6"/>
      <text x="50" y="20" fill="white" font-size="11" font-weight="bold" text-anchor="middle">Smart All (8)</text>
      
      <rect x="110" y="0" width="90" height="30" fill="#22c55e" rx="6"/>
      <text x="155" y="20" fill="white" font-size="11" text-anchor="middle">Priority (3)</text>
      
      <rect x="210" y="0" width="90" height="30" fill="#f59e0b" rx="6"/>
      <text x="255" y="20" fill="white" font-size="11" text-anchor="middle">Case Updates</text>
      
      <rect x="310" y="0" width="90" height="30" fill="#7c3aed" rx="6"/>
      <text x="355" y="20" fill="white" font-size="11" text-anchor="middle">AI Messages</text>
      
      <rect x="410" y="0" width="80" height="30" fill="#3b82f6" rx="6"/>
      <text x="450" y="20" fill="white" font-size="11" text-anchor="middle">Predictive</text>
      
      <rect x="500" y="0" width="80" height="30" fill="#ef4444" rx="6"/>
      <text x="540" y="20" fill="white" font-size="11" text-anchor="middle">Urgent (2)</text>
    </g>
    
    <!-- AI Analytics Summary -->
    <g transform="translate(600, 15)">
      <text x="0" y="12" font-size="11" font-weight="bold" fill="#0ea5e9">AI Analytics:</text>
      <text x="0" y="25" font-size="9" fill="#0ea5e9">Response rate: 94% • Auto-resolved: 67% • Prediction accuracy: 91%</text>
    </g>
    
    <!-- Advanced Settings -->
    <g transform="translate(900, 10)">
      <rect x="0" y="0" width="80" height="25" fill="#6b7280" rx="4"/>
      <text x="40" y="16" fill="white" font-size="10" text-anchor="middle">AI Settings</text>
      
      <rect x="90" y="0" width="60" height="25" fill="#22c55e" rx="4"/>
      <text x="120" y="16" fill="white" font-size="10" text-anchor="middle">Auto-Act</text>
    </g>
  </g>
  
  <!-- AI-Enhanced Notification Stream -->
  <g transform="translate(70, 220)">
    <!-- Critical AI Alert -->
    <g transform="translate(0, 0)">
      <rect x="0" y="0" width="1060" height="100" fill="#fef2f2" stroke="#dc2626" stroke-width="3" rx="10"/>
      
      <!-- AI Priority &amp; Status -->
      <g transform="translate(15, 10)">
        <rect x="0" y="0" width="80" height="20" fill="#dc2626" rx="10"/>
        <text x="40" y="13" fill="white" font-size="9" font-weight="bold" text-anchor="middle">CRITICAL</text>
        
        <rect x="90" y="0" width="60" height="20" fill="#f59e0b" rx="10"/>
        <text x="120" y="13" fill="white" font-size="9" text-anchor="middle">AUTO-ACT</text>
      </g>
      
      <!-- Enhanced Icon -->
      <circle cx="180" cy="50" r="18" fill="#dc2626"/>
      <text x="180" y="56" fill="white" font-size="14" font-weight="bold" text-anchor="middle">!</text>
      
      <!-- AI-Enhanced Content -->
      <g transform="translate(220, 25)">
        <text x="0" y="18" font-size="16" font-weight="bold">CRITICAL: RFE Risk Detected - Immediate Action Required</text>
        <text x="0" y="35" font-size="13" fill="#6b7280">AI analysis identified potential RFE trigger in submitted evidence package</text>
        <text x="0" y="52" font-size="12" fill="#dc2626">Issue: Patent #US11234567 valuation needs supporting documentation • Risk score: 87%</text>
        <text x="0" y="69" font-size="12" fill="#22c55e">AI Solution: Auto-generated supporting memo ready for attorney review</text>
      </g>
      
      <!-- AI Actions Panel -->
      <g transform="translate(750, 25)">
        <rect x="0" y="0" width="120" height="30" fill="#dc2626" rx="6"/>
        <text x="60" y="20" fill="white" font-size="11" text-anchor="middle">Auto-Fix Now</text>
        
        <rect x="130" y="0" width="100" height="30" fill="#3b82f6" rx="6"/>
        <text x="180" y="20" fill="white" font-size="11" text-anchor="middle">Review Details</text>
        
        <rect x="240" y="0" width="80" height="30" fill="#22c55e" rx="6"/>
        <text x="280" y="20" fill="white" font-size="11" text-anchor="middle">Schedule Call</text>
        
        <text x="0" y="50" font-size="10" fill="#9ca3af">Detected 15 min ago</text>
        <text x="0" y="65" font-size="10" fill="#22c55e">AI resolution ready</text>
      </g>
    </g>
    
    <!-- AI Success Prediction -->
    <g transform="translate(0, 110)">
      <rect x="0" y="0" width="1060" height="90" fill="#ecfdf5" stroke="#22c55e" stroke-width="2" rx="10"/>
      
      <!-- Success Badge -->
      <rect x="15" y="10" width="90" height="20" fill="#22c55e" rx="10"/>
      <text x="60" y="23" fill="white" font-size="9" font-weight="bold" text-anchor="middle">SUCCESS PRED</text>
      
      <!-- AI Icon -->
      <circle cx="130" cy="45" r="15" fill="#22c55e"/>
      <text x="130" y="50" fill="white" font-size="12" text-anchor="middle">AI</text>
      
      <!-- Predictive Content -->
      <g transform="translate(165, 20)">
        <text x="0" y="18" font-size="15" font-weight="bold">AI Prediction: Case Success Probability Increased to 97%</text>
        <text x="0" y="35" font-size="12" fill="#6b7280">Recent evidence optimization and USCIS filing timing analysis</text>
        <text x="0" y="52" font-size="12" fill="#22c55e">Key factors: Patent valuations (+15%), Publication impact (+8%), Timeline optimization (+5%)</text>
      </g>
      
      <!-- Prediction Confidence -->
      <g transform="translate(700, 20)">
        <rect x="0" y="0" width="200" height="50" fill="#f0fdf4" stroke="#22c55e" rx="6"/>
        <text x="15" y="18" font-size="12" font-weight="bold" fill="#22c55e">AI Confidence Level:</text>
        
        <!-- Confidence Bar -->
        <rect x="15" y="25" width="100" height="8" fill="#bbf7d0" rx="4"/>
        <rect x="15" y="25" width="91" height="8" fill="#22c55e" rx="4"/>
        <text x="125" y="32" font-size="11" font-weight="bold" fill="#22c55e">91%</text>
        
        <text x="15" y="45" font-size="10" fill="#22c55e">Based on 2,847 similar cases</text>
      </g>
      
      <!-- AI Actions -->
      <g transform="translate(920, 25)">
        <rect x="0" y="0" width="100" height="25" fill="#22c55e" rx="4"/>
        <text x="50" y="16" fill="white" font-size="10" text-anchor="middle">View Analysis</text>
        
        <text x="0" y="50" font-size="9" fill="#9ca3af">Updated 2 min ago</text>
      </g>
    </g>
    
    <!-- AI-Powered Interactive Message -->
    <g transform="translate(0, 210)">
      <rect x="0" y="0" width="1060" height="100" fill="#f0f9ff" stroke="#3b82f6" stroke-width="2" rx="10"/>
      
      <!-- Message Type -->
      <rect x="15" y="10" width="80" height="20" fill="#3b82f6" rx="10"/>
      <text x="55" y="23" fill="white" font-size="9" font-weight="bold" text-anchor="middle">AI MESSAGE</text>
      
      <!-- Attorney + AI Icon -->
      <g transform="translate(110, 25)">
        <circle cx="15" cy="25" r="15" fill="#3b82f6"/>
        <text x="15" y="30" fill="white" font-size="10" text-anchor="middle">JS</text>
        
        <circle cx="35" cy="35" r="8" fill="#22c55e"/>
        <text x="35" y="39" fill="white" font-size="6" text-anchor="middle">AI</text>
      </g>
      
      <!-- AI-Enhanced Message Content -->
      <g transform="translate(165, 20)">
        <text x="0" y="18" font-size="15" font-weight="bold">Dr. Jane Smith, Esq. + AI Assistant</text>
        <text x="0" y="35" font-size="12" fill="#6b7280">"Excellent news! AI analysis confirms optimal case strength. Let's discuss strategy."</text>
        <text x="0" y="52" font-size="11" fill="#3b82f6">AI Context: Meeting auto-scheduled based on your calendar • Agenda pre-generated</text>
        <text x="0" y="69" font-size="11" fill="#7c3aed">Smart attachments: Case analysis report, timeline update, next steps checklist</text>
      </g>
      
      <!-- AI-Powered Quick Actions -->
      <g transform="translate(700, 20)">
        <rect x="0" y="0" width="80" height="25" fill="#22c55e" rx="4"/>
        <text x="40" y="16" fill="white" font-size="10" text-anchor="middle">Accept &amp; Prep</text>
        
        <rect x="90" y="0" width="80" height="25" fill="#f59e0b" rx="4"/>
        <text x="130" y="16" fill="white" font-size="10" text-anchor="middle">Reschedule</text>
        
        <rect x="180" y="0" width="80" height="25" fill="#7c3aed" rx="4"/>
        <text x="220" y="16" fill="white" font-size="10" text-anchor="middle">AI Summary</text>
        
        <rect x="0" y="30" width="80" height="25" fill="#3b82f6" rx="4"/>
        <text x="40" y="46" fill="white" font-size="10" text-anchor="middle">Video Join</text>
        
        <rect x="90" y="30" width="80" height="25" fill="#6b7280" rx="4"/>
        <text x="130" y="46" fill="white" font-size="10" text-anchor="middle">Reply</text>
        
        <text x="180" y="35" font-size="9" fill="#9ca3af">Tomorrow 3 PM</text>
        <text x="180" y="50" font-size="9" fill="#22c55e">AI prepped</text>
      </g>
    </g>
    
    <!-- AI Document Intelligence Alert -->
    <g transform="translate(0, 320)">
      <rect x="0" y="0" width="1060" height="80" fill="#fffbeb" stroke="#f59e0b" stroke-width="2" rx="10"/>
      
      <!-- Document AI Badge -->
      <rect x="15" y="10" width="90" height="20" fill="#f59e0b" rx="10"/>
      <text x="60" y="23" fill="white" font-size="9" font-weight="bold" text-anchor="middle">DOC AI</text>
      
      <!-- AI Icon -->
      <circle cx="130" cy="40" r="12" fill="#f59e0b"/>
      <text x="130" y="45" fill="white" font-size="10" text-anchor="middle">D</text>
      
      <!-- AI Document Analysis -->
      <g transform="translate(165, 15)">
        <text x="0" y="18" font-size="15" font-weight="bold">AI Document Intelligence: Enhancement Opportunity Detected</text>
        <text x="0" y="35" font-size="12" fill="#6b7280">Patent #US11234567 impact score can be increased by 23% with additional supporting data</text>
        <text x="0" y="52" font-size="12" fill="#f59e0b">AI Recommendation: Add market analysis data from USPTO database • Auto-research completed</text>
      </g>
      
      <!-- AI Progress &amp; Actions -->
      <g transform="translate(750, 15)">
        <!-- AI Progress Ring -->
        <g transform="translate(50, 0)">
          <circle cx="15" cy="15" r="12" fill="none" stroke="#fef3c7" stroke-width="3"/>
          <circle cx="15" cy="15" r="12" fill="none" stroke="#f59e0b" stroke-width="3" stroke-dasharray="38" stroke-dashoffset="11"/>
          <text x="15" y="19" fill="#f59e0b" font-size="8" text-anchor="middle">75%</text>
          <text x="15" y="35" font-size="8" text-anchor="middle" fill="#f59e0b">AI Ready</text>
        </g>
        
        <!-- Action Buttons -->
        <rect x="130" y="5" width="100" height="25" fill="#f59e0b" rx="4"/>
        <text x="180" y="20" fill="white" font-size="10" text-anchor="middle">Auto-Enhance</text>
        
        <rect x="240" y="5" width="80" height="25" fill="#3b82f6" rx="4"/>
        <text x="280" y="20" fill="white" font-size="10" text-anchor="middle">Review Data</text>
        
        <text x="130" y="45" font-size="9" fill="#9ca3af">AI research: 12 min ago</text>
        <text x="130" y="58" font-size="9" fill="#f59e0b">Impact: +$47K valuation</text>
      </g>
    </g>
  </g>
  
  <!-- AI-Powered Settings &amp; Control Panel -->
  <g transform="translate(70, 640)">
    <rect x="0" y="0" width="1060" height="80" fill="#f8fafc" stroke="#e2e8f0" stroke-width="2" rx="10"/>
    
    <g transform="translate(20, 15)">
      <text x="0" y="18" font-size="16" font-weight="bold">AI Notification Intelligence Settings</text>
      <text x="0" y="35" font-size="12" fill="#6b7280">Channels: Email, SMS, Push, Voice, Slack • AI Priority: Active • Auto-actions: Enabled</text>
      <text x="0" y="52" font-size="11" fill="#0ea5e9">AI Performance: 91% accuracy • 94% user satisfaction • 67% auto-resolved • 2.3s avg response</text>
      
      <!-- AI Control Toggles -->
      <g transform="translate(600, 0)">
        <rect x="0" y="0" width="100" height="20" fill="#22c55e" rx="4"/>
        <text x="50" y="13" fill="white" font-size="9" text-anchor="middle">Smart Priority</text>
        
        <rect x="110" y="0" width="100" height="20" fill="#3b82f6" rx="4"/>
        <text x="160" y="13" fill="white" font-size="9" text-anchor="middle">Predictive</text>
        
        <rect x="220" y="0" width="100" height="20" fill="#f59e0b" rx="4"/>
        <text x="270" y="13" fill="white" font-size="9" text-anchor="middle">Auto-Actions</text>
        
        <rect x="330" y="0" width="100" height="20" fill="#7c3aed" rx="4"/>
        <text x="380" y="13" fill="white" font-size="9" text-anchor="middle">Voice Alerts</text>
        
        <!-- AI Learning -->
        <rect x="0" y="25" width="100" height="20" fill="#10b981" rx="4"/>
        <text x="50" y="38" fill="white" font-size="9" text-anchor="middle">AI Learning</text>
        
        <rect x="110" y="25" width="100" height="20" fill="#ef4444" rx="4"/>
        <text x="160" y="38" fill="white" font-size="9" text-anchor="middle">Emergency</text>
        
        <rect x="220" y="25" width="100" height="20" fill="#06b6d4" rx="4"/>
        <text x="270" y="38" fill="white" font-size="9" text-anchor="middle">Analytics</text>
        
        <rect x="330" y="25" width="100" height="20" fill="#8b5cf6" rx="4"/>
        <text x="380" y="38" fill="white" font-size="9" text-anchor="middle">Multi-Lang</text>
      </g>
    </g>
    
    <!-- Master AI Settings -->
    <g transform="translate(900, 20)">
      <rect x="0" y="0" width="120" height="30" fill="#2563eb" rx="6"/>
      <text x="60" y="20" fill="white" font-size="12" text-anchor="middle">AI Dashboard</text>
      
      <!-- Live AI Status -->
      <g transform="translate(0, 35)">
        <circle cx="10" cy="5" r="4" fill="#22c55e"/>
        <text x="20" y="9" font-size="9" fill="#22c55e">AI systems online</text>
      </g>
    </g>
  </g>
  
  <!-- Live AI Status Bar -->
  <g transform="translate(70, 730)">
    <rect x="0" y="0" width="1060" height="40" fill="#f0f9ff" stroke="#0ea5e9" stroke-width="2" rx="8"/>
    
    <g transform="translate(20, 10)">
      <text x="0" y="12" font-size="13" font-weight="bold" fill="#0ea5e9">Live AI Notification Intelligence:</text>
      <text x="0" y="25" font-size="11" fill="#0ea5e9">Processing 847 data points • 3 priority alerts • 12 predictive insights • 91% accuracy • Auto-actions ready • Voice commands active</text>
      
      <!-- Real-time Indicators -->
      <g transform="translate(800, -5)">
        <rect x="0" y="0" width="60" height="15" fill="#22c55e" rx="3"/>
        <text x="30" y="10" fill="white" font-size="8" text-anchor="middle">Active</text>
        
        <rect x="70" y="0" width="60" height="15" fill="#3b82f6" rx="3"/>
        <text x="100" y="10" fill="white" font-size="8" text-anchor="middle">Tracking</text>
        
        <rect x="140" y="0" width="60" height="15" fill="#f59e0b" rx="3"/>
        <text x="170" y="10" fill="white" font-size="8" text-anchor="middle">Predicting</text>
        
        <rect x="0" y="20" width="60" height="15" fill="#7c3aed" rx="3"/>
        <text x="30" y="30" fill="white" font-size="8" text-anchor="middle">Auto-Act</text>
        
        <rect x="70" y="20" width="60" height="15" fill="#ef4444" rx="3"/>
        <text x="100" y="30" fill="white" font-size="8" text-anchor="middle">Monitor</text>
        
        <rect x="140" y="20" width="60" height="15" fill="#10b981" rx="3"/>
        <text x="170" y="30" fill="white" font-size="8" text-anchor="middle">Optimized</text>
      </g>
    </g>
  </g>
</svg>